<?xml version="1.0" encoding="UTF-8" standalone="no"?>
<svg
   version="1.1"
   xml:space="preserve"
   width="400px"
   height="400px"
   viewBox="0 0 400 400"
   id="svg2478"
   sodipodi:docname="codeine.svg"
   inkscape:version="1.2.2 (b0a84865, 2022-12-01)"
   inkscape:export-filename="codeine.png"
   inkscape:export-xdpi="96"
   inkscape:export-ydpi="96"
   xmlns:inkscape="http://www.inkscape.org/namespaces/inkscape"
   xmlns:sodipodi="http://sodipodi.sourceforge.net/DTD/sodipodi-0.dtd"
   xmlns="http://www.w3.org/2000/svg"
   xmlns:svg="http://www.w3.org/2000/svg"><defs
   id="defs2482"><rect
     x="30.508475"
     y="340.67797"
     width="310.16949"
     height="59.322034"
     id="rect2744" /></defs><sodipodi:namedview
   id="namedview2480"
   pagecolor="#ffffff"
   bordercolor="#000000"
   borderopacity="0.25"
   inkscape:showpageshadow="2"
   inkscape:pageopacity="0.0"
   inkscape:pagecheckerboard="0"
   inkscape:deskcolor="#d1d1d1"
   showgrid="false"
   inkscape:zoom="0.59"
   inkscape:cx="-32.20339"
   inkscape:cy="207.62712"
   inkscape:window-width="1512"
   inkscape:window-height="851"
   inkscape:window-x="0"
   inkscape:window-y="38"
   inkscape:window-maximized="0"
   inkscape:current-layer="g2670" />
<!-- END OF HEADER -->




































































<g
   id="g2670"
   transform="translate(-596.61017,-25.423729)"><g
     id="g2740"
     transform="matrix(-0.66878908,0.47102228,-0.47374955,-0.664939,1072.7088,237.8964)"><path
       class="bond-0 atom-0 atom-1"
       d="m 18.2,279.4 25.9,2.7"
       style="fill:none;fill-rule:evenodd;stroke:#000000;stroke-width:2px;stroke-linecap:butt;stroke-linejoin:miter;stroke-opacity:1"
       id="path2342" /><path
       class="bond-0 atom-0 atom-1"
       d="M 44.1,282.1 70,284.8"
       style="fill:none;fill-rule:evenodd;stroke:#ff0000;stroke-width:2px;stroke-linecap:butt;stroke-linejoin:miter;stroke-opacity:1"
       id="path2344" /><path
       class="bond-1 atom-1 atom-2"
       d="m 87.9,275 14.3,-19.7"
       style="fill:none;fill-rule:evenodd;stroke:#ff0000;stroke-width:2px;stroke-linecap:butt;stroke-linejoin:miter;stroke-opacity:1"
       id="path2346" /><path
       class="bond-1 atom-1 atom-2"
       d="m 102.2,255.3 14.4,-19.8"
       style="fill:none;fill-rule:evenodd;stroke:#000000;stroke-width:2px;stroke-linecap:butt;stroke-linejoin:miter;stroke-opacity:1"
       id="path2348" /><path
       class="bond-2 atom-2 atom-3"
       d="M 116.6,235.5 91.3,178.7"
       style="fill:none;fill-rule:evenodd;stroke:#000000;stroke-width:2px;stroke-linecap:butt;stroke-linejoin:miter;stroke-opacity:1"
       id="path2350" /><path
       class="bond-2 atom-2 atom-3"
       d="M 122.6,227.2 101.5,179.8"
       style="fill:none;fill-rule:evenodd;stroke:#000000;stroke-width:2px;stroke-linecap:butt;stroke-linejoin:miter;stroke-opacity:1"
       id="path2352" /><path
       class="bond-3 atom-3 atom-4"
       d="m 91.3,178.7 36.5,-50.3"
       style="fill:none;fill-rule:evenodd;stroke:#000000;stroke-width:2px;stroke-linecap:butt;stroke-linejoin:miter;stroke-opacity:1"
       id="path2354" /><path
       class="bond-4 atom-4 atom-5"
       d="m 127.8,128.4 61.9,6.5"
       style="fill:none;fill-rule:evenodd;stroke:#000000;stroke-width:2px;stroke-linecap:butt;stroke-linejoin:miter;stroke-opacity:1"
       id="path2356" /><path
       class="bond-4 atom-4 atom-5"
       d="m 132,137.8 51.6,5.5"
       style="fill:none;fill-rule:evenodd;stroke:#000000;stroke-width:2px;stroke-linecap:butt;stroke-linejoin:miter;stroke-opacity:1"
       id="path2358" /><path
       class="bond-5 atom-5 atom-6"
       d="M 189.7,134.9 215,191.7"
       style="fill:none;fill-rule:evenodd;stroke:#000000;stroke-width:2px;stroke-linecap:butt;stroke-linejoin:miter;stroke-opacity:1"
       id="path2360" /><path
       class="bond-6 atom-6 atom-7"
       d="M 215,191.7 178.4,242"
       style="fill:none;fill-rule:evenodd;stroke:#000000;stroke-width:2px;stroke-linecap:butt;stroke-linejoin:miter;stroke-opacity:1"
       id="path2362" /><path
       class="bond-6 atom-6 atom-7"
       d="m 204.7,190.7 -30.5,41.9"
       style="fill:none;fill-rule:evenodd;stroke:#000000;stroke-width:2px;stroke-linecap:butt;stroke-linejoin:miter;stroke-opacity:1"
       id="path2364" /><path
       class="bond-7 atom-7 atom-8"
       d="m 178.4,242 14.3,19.8"
       style="fill:none;fill-rule:evenodd;stroke:#000000;stroke-width:2px;stroke-linecap:butt;stroke-linejoin:miter;stroke-opacity:1"
       id="path2366" /><path
       class="bond-7 atom-7 atom-8"
       d="m 192.7,261.8 14.4,19.7"
       style="fill:none;fill-rule:evenodd;stroke:#ff0000;stroke-width:2px;stroke-linecap:butt;stroke-linejoin:miter;stroke-opacity:1"
       id="path2368" /><path
       class="bond-8 atom-8 atom-9"
       d="m 225,289.1 24.6,-8"
       style="fill:none;fill-rule:evenodd;stroke:#ff0000;stroke-width:2px;stroke-linecap:butt;stroke-linejoin:miter;stroke-opacity:1"
       id="path2370" /><path
       class="bond-8 atom-8 atom-9"
       d="m 249.6,281.1 24.5,-8"
       style="fill:none;fill-rule:evenodd;stroke:#000000;stroke-width:2px;stroke-linecap:butt;stroke-linejoin:miter;stroke-opacity:1"
       id="path2372" /><path
       class="bond-9 atom-9 atom-10"
       d="M 274.1,273.1 328,304.2"
       style="fill:none;fill-rule:evenodd;stroke:#000000;stroke-width:2px;stroke-linecap:butt;stroke-linejoin:miter;stroke-opacity:1"
       id="path2374" /><path
       class="bond-10 atom-10 atom-11"
       d="m 328.3,307.8 h -0.7"
       style="fill:none;fill-rule:evenodd;stroke:#000000;stroke-width:1px;stroke-linecap:butt;stroke-linejoin:miter;stroke-opacity:1"
       id="path2376" /><path
       class="bond-10 atom-10 atom-11"
       d="m 328.6,311.3 h -1.3"
       style="fill:none;fill-rule:evenodd;stroke:#000000;stroke-width:1px;stroke-linecap:butt;stroke-linejoin:miter;stroke-opacity:1"
       id="path2378" /><path
       class="bond-10 atom-10 atom-11"
       d="M 328.9,314.8 H 327"
       style="fill:none;fill-rule:evenodd;stroke:#000000;stroke-width:1px;stroke-linecap:butt;stroke-linejoin:miter;stroke-opacity:1"
       id="path2380" /><path
       class="bond-10 atom-10 atom-11"
       d="m 329.2,318.3 h -2.5"
       style="fill:none;fill-rule:evenodd;stroke:#000000;stroke-width:1px;stroke-linecap:butt;stroke-linejoin:miter;stroke-opacity:1"
       id="path2382" /><path
       class="bond-10 atom-10 atom-11"
       d="m 329.6,321.9 h -3.2"
       style="fill:none;fill-rule:evenodd;stroke:#000000;stroke-width:1px;stroke-linecap:butt;stroke-linejoin:miter;stroke-opacity:1"
       id="path2384" /><path
       class="bond-10 atom-10 atom-11"
       d="m 329.9,325.4 h -3.8"
       style="fill:none;fill-rule:evenodd;stroke:#000000;stroke-width:1px;stroke-linecap:butt;stroke-linejoin:miter;stroke-opacity:1"
       id="path2386" /><path
       class="bond-10 atom-10 atom-11"
       d="m 330.2,328.9 h -4.5"
       style="fill:none;fill-rule:evenodd;stroke:#000000;stroke-width:1px;stroke-linecap:butt;stroke-linejoin:miter;stroke-opacity:1"
       id="path2388" /><path
       class="bond-10 atom-10 atom-11"
       d="m 330.5,332.4 h -5.1"
       style="fill:none;fill-rule:evenodd;stroke:#ff0000;stroke-width:1px;stroke-linecap:butt;stroke-linejoin:miter;stroke-opacity:1"
       id="path2390" /><path
       class="bond-10 atom-10 atom-11"
       d="m 330.8,336 h -5.7"
       style="fill:none;fill-rule:evenodd;stroke:#ff0000;stroke-width:1px;stroke-linecap:butt;stroke-linejoin:miter;stroke-opacity:1"
       id="path2392" /><path
       class="bond-10 atom-10 atom-11"
       d="m 331.2,339.5 h -6.4"
       style="fill:none;fill-rule:evenodd;stroke:#ff0000;stroke-width:1px;stroke-linecap:butt;stroke-linejoin:miter;stroke-opacity:1"
       id="path2394" /><path
       class="bond-10 atom-10 atom-11"
       d="m 331.5,343 h -7"
       style="fill:none;fill-rule:evenodd;stroke:#ff0000;stroke-width:1px;stroke-linecap:butt;stroke-linejoin:miter;stroke-opacity:1"
       id="path2396" /><path
       class="bond-10 atom-10 atom-11"
       d="m 331.8,346.5 h -7.7"
       style="fill:none;fill-rule:evenodd;stroke:#ff0000;stroke-width:1px;stroke-linecap:butt;stroke-linejoin:miter;stroke-opacity:1"
       id="path2398" /><path
       class="bond-10 atom-10 atom-11"
       d="m 332.1,350.1 h -8.3"
       style="fill:none;fill-rule:evenodd;stroke:#ff0000;stroke-width:1px;stroke-linecap:butt;stroke-linejoin:miter;stroke-opacity:1"
       id="path2400" /><path
       class="bond-10 atom-10 atom-11"
       d="m 332.4,353.6 h -8.9"
       style="fill:none;fill-rule:evenodd;stroke:#ff0000;stroke-width:1px;stroke-linecap:butt;stroke-linejoin:miter;stroke-opacity:1"
       id="path2402" /><path
       class="bond-11 atom-10 atom-12"
       d="m 328,304.2 53.8,-31.1"
       style="fill:none;fill-rule:evenodd;stroke:#000000;stroke-width:2px;stroke-linecap:butt;stroke-linejoin:miter;stroke-opacity:1"
       id="path2404" /><path
       class="bond-12 atom-12 atom-13"
       d="M 381.8,273.1 V 211"
       style="fill:none;fill-rule:evenodd;stroke:#000000;stroke-width:2px;stroke-linecap:butt;stroke-linejoin:miter;stroke-opacity:1"
       id="path2406" /><path
       class="bond-12 atom-12 atom-13"
       d="M 372.9,268 V 216.1"
       style="fill:none;fill-rule:evenodd;stroke:#000000;stroke-width:2px;stroke-linecap:butt;stroke-linejoin:miter;stroke-opacity:1"
       id="path2408" /><path
       class="bond-13 atom-13 atom-14"
       d="M 381.8,211 328,179.9"
       style="fill:none;fill-rule:evenodd;stroke:#000000;stroke-width:2px;stroke-linecap:butt;stroke-linejoin:miter;stroke-opacity:1"
       id="path2410" /><path
       class="bond-14 atom-14 atom-15"
       d="M 328,179.9 V 117.7"
       style="fill:none;fill-rule:evenodd;stroke:#000000;stroke-width:2px;stroke-linecap:butt;stroke-linejoin:miter;stroke-opacity:1"
       id="path2412" /><path
       class="bond-15 atom-15 atom-16"
       d="M 328,117.7 239.3,97.4"
       style="fill:none;fill-rule:evenodd;stroke:#000000;stroke-width:2px;stroke-linecap:butt;stroke-linejoin:miter;stroke-opacity:1"
       id="path2414" /><path
       class="bond-16 atom-15 atom-17"
       d="m 328,117.7 -22.6,-0.9"
       style="fill:none;fill-rule:evenodd;stroke:#000000;stroke-width:2px;stroke-linecap:butt;stroke-linejoin:miter;stroke-opacity:1"
       id="path2416" /><path
       class="bond-16 atom-15 atom-17"
       d="m 305.4,116.8 -22.6,-0.9"
       style="fill:none;fill-rule:evenodd;stroke:#0000ff;stroke-width:2px;stroke-linecap:butt;stroke-linejoin:miter;stroke-opacity:1"
       id="path2418" /><path
       class="bond-17 atom-17 atom-18"
       d="M 274.1,104.8 V 64.6"
       style="fill:none;fill-rule:evenodd;stroke:#0000ff;stroke-width:2px;stroke-linecap:butt;stroke-linejoin:miter;stroke-opacity:1"
       id="path2420" /><path
       class="bond-17 atom-17 atom-18"
       d="M 274.1,64.6 V 24.4"
       style="fill:none;fill-rule:evenodd;stroke:#000000;stroke-width:2px;stroke-linecap:butt;stroke-linejoin:miter;stroke-opacity:1"
       id="path2422" /><path
       class="bond-18 atom-17 atom-19"
       d="m 265.5,120.6 -10.1,5.8"
       style="fill:none;fill-rule:evenodd;stroke:#0000ff;stroke-width:2px;stroke-linecap:butt;stroke-linejoin:miter;stroke-opacity:1"
       id="path2424" /><path
       class="bond-18 atom-17 atom-19"
       d="m 255.4,126.4 -10,5.8"
       style="fill:none;fill-rule:evenodd;stroke:#000000;stroke-width:2px;stroke-linecap:butt;stroke-linejoin:miter;stroke-opacity:1"
       id="path2426" /><path
       class="bond-19 atom-19 atom-20"
       d="m 245.4,132.2 v 40.6"
       style="fill:none;fill-rule:evenodd;stroke:#000000;stroke-width:2px;stroke-linecap:butt;stroke-linejoin:miter;stroke-opacity:1"
       id="path2428" /><path
       class="bond-20 atom-21 atom-20"
       d="M 274.1,211 245.4,172.8 V 155.7 Z"
       style="fill:#000000;fill-opacity:1;fill-rule:evenodd;stroke:#000000;stroke-width:0.5px;stroke-linecap:butt;stroke-linejoin:miter;stroke-opacity:1"
       id="path2430" /><path
       class="bond-21 atom-7 atom-2"
       d="m 178.4,242 -61.8,-6.5"
       style="fill:none;fill-rule:evenodd;stroke:#000000;stroke-width:2px;stroke-linecap:butt;stroke-linejoin:miter;stroke-opacity:1"
       id="path2432" /><path
       class="bond-22 atom-21 atom-9"
       d="m 274.1,211 v 62.1"
       style="fill:none;fill-rule:evenodd;stroke:#000000;stroke-width:2px;stroke-linecap:butt;stroke-linejoin:miter;stroke-opacity:1"
       id="path2434" /><path
       class="bond-23 atom-16 atom-5"
       d="m 239.3,97.4 -49.6,37.5"
       style="fill:none;fill-rule:evenodd;stroke:#000000;stroke-width:2px;stroke-linecap:butt;stroke-linejoin:miter;stroke-opacity:1"
       id="path2436" /><path
       class="bond-24 atom-21 atom-6"
       d="M 274.1,211 215,191.7"
       style="fill:none;fill-rule:evenodd;stroke:#000000;stroke-width:2px;stroke-linecap:butt;stroke-linejoin:miter;stroke-opacity:1"
       id="path2438" /><path
       class="bond-25 atom-21 atom-14"
       d="M 274.1,211 328,179.9"
       style="fill:none;fill-rule:evenodd;stroke:#000000;stroke-width:2px;stroke-linecap:butt;stroke-linejoin:miter;stroke-opacity:1"
       id="path2440" /><path
       class="bond-26 atom-9 atom-22"
       d="m 274.1,273.1 1.5,29 -8.9,-0.9 z"
       style="fill:#000000;fill-opacity:1;fill-rule:evenodd;stroke:#000000;stroke-width:0.5px;stroke-linecap:butt;stroke-linejoin:miter;stroke-opacity:1"
       id="path2442" /><path
       class="bond-27 atom-14 atom-23"
       d="m 328,179.9 -27.4,-10.7 4.5,-7.7 z"
       style="fill:#000000;fill-opacity:1;fill-rule:evenodd;stroke:#000000;stroke-width:0.5px;stroke-linecap:butt;stroke-linejoin:miter;stroke-opacity:1"
       id="path2444" /><path
       class="bond-28 atom-15 atom-24"
       d="m 328,117.7 18.8,-20.7 5.5,6.9 z"
       style="fill:#000000;fill-opacity:1;fill-rule:evenodd;stroke:#000000;stroke-width:0.5px;stroke-linecap:butt;stroke-linejoin:miter;stroke-opacity:1"
       id="path2446" /><path
       d="m 92.5,181.6 -1.2,-2.9 1.8,-2.5"
       style="fill:none;stroke:#000000;stroke-width:2px;stroke-linecap:butt;stroke-linejoin:miter;stroke-opacity:1"
       id="path2448" /><path
       d="m 126,130.9 1.8,-2.5 3.1,0.4"
       style="fill:none;stroke:#000000;stroke-width:2px;stroke-linecap:butt;stroke-linejoin:miter;stroke-opacity:1"
       id="path2450" /><path
       d="m 325.3,302.7 2.7,1.5 2.7,-1.5"
       style="fill:none;stroke:#000000;stroke-width:2px;stroke-linecap:butt;stroke-linejoin:miter;stroke-opacity:1"
       id="path2452" /><path
       d="m 379.1,274.7 2.7,-1.6 V 270"
       style="fill:none;stroke:#000000;stroke-width:2px;stroke-linecap:butt;stroke-linejoin:miter;stroke-opacity:1"
       id="path2454" /><path
       d="M 381.8,214.1 V 211 l -2.7,-1.6"
       style="fill:none;stroke:#000000;stroke-width:2px;stroke-linecap:butt;stroke-linejoin:miter;stroke-opacity:1"
       id="path2456" /><path
       d="m 243.7,98.4 -4.4,-1 -2.5,1.9"
       style="fill:none;stroke:#000000;stroke-width:2px;stroke-linecap:butt;stroke-linejoin:miter;stroke-opacity:1"
       id="path2458" /><path
       d="m 245.9,131.9 -0.5,0.3 v 2"
       style="fill:none;stroke:#000000;stroke-width:2px;stroke-linecap:butt;stroke-linejoin:miter;stroke-opacity:1"
       id="path2460" /><path
       class="atom-1"
       d="m 71.9,285.9 q 0,-4.2 2.1,-6.6 2.1,-2.3 6,-2.3 3.9,0 6,2.3 2.1,2.4 2.1,6.6 0,4.3 -2.1,6.7 -2.1,2.4 -6,2.4 -3.9,0 -6,-2.4 -2.1,-2.4 -2.1,-6.7 M 80,293 q 2.7,0 4.2,-1.7 1.4,-1.9 1.4,-5.4 0,-3.5 -1.4,-5.2 -1.5,-1.8 -4.2,-1.8 -2.7,0 -4.1,1.8 -1.5,1.7 -1.5,5.2 0,3.6 1.5,5.4 1.4,1.7 4.1,1.7"
       fill="#ff0000"
       id="path2462" /><path
       class="atom-8"
       d="m 206.9,292.4 q 0,-4.2 2.1,-6.6 2.1,-2.3 6,-2.3 3.9,0 6,2.3 2.1,2.4 2.1,6.6 0,4.3 -2.2,6.7 -2.1,2.4 -5.9,2.4 -3.9,0 -6,-2.4 -2.1,-2.4 -2.1,-6.7 m 8.1,7.1 q 2.7,0 4.1,-1.7 1.5,-1.9 1.5,-5.4 0,-3.5 -1.5,-5.2 -1.4,-1.8 -4.1,-1.8 -2.7,0 -4.2,1.8 -1.4,1.7 -1.4,5.2 0,3.6 1.4,5.4 1.5,1.7 4.2,1.7"
       fill="#ff0000"
       id="path2464" /><path
       class="atom-11"
       d="m 319.9,366.5 q 0,-4.3 2.1,-6.6 2.1,-2.4 6,-2.4 3.9,0 6,2.4 2,2.3 2,6.6 0,4.2 -2.1,6.7 -2.1,2.4 -5.9,2.4 -3.9,0 -6,-2.4 -2.1,-2.4 -2.1,-6.7 m 8.1,7.1 q 2.7,0 4.1,-1.8 1.5,-1.8 1.5,-5.3 0,-3.5 -1.5,-5.2 -1.4,-1.8 -4.1,-1.8 -2.7,0 -4.2,1.7 -1.4,1.8 -1.4,5.3 0,3.5 1.4,5.3 1.5,1.8 4.2,1.8"
       fill="#ff0000"
       id="path2466" /><path
       class="atom-11"
       d="m 338.8,357.7 h 2.4 v 7.5 h 9 v -7.5 h 2.4 v 17.6 h -2.4 v -8.1 h -9 v 8.1 h -2.4 v -17.6"
       fill="#ff0000"
       id="path2468" /><path
       class="atom-17"
       d="m 270.2,106.8 5.8,9.3 q 0.6,1 1.5,2.6 0.9,1.7 1,1.8 v -13.7 h 2.3 v 17.6 h -2.4 l -6.2,-10.2 q -0.7,-1.2 -1.5,-2.5 -0.8,-1.4 -1,-1.8 v 14.5 h -2.3 v -17.6 h 2.8"
       fill="#0000ff"
       id="path2470" /><path
       class="atom-22"
       d="m 262.9,305.6 h 2.4 v 7.5 h 9 v -7.5 h 2.4 v 17.6 h -2.4 V 315 h -9 v 8.2 h -2.4 v -17.6"
       fill="#000000"
       id="path2472" /><path
       class="atom-23"
       d="m 285.2,150.3 h 2.4 v 7.5 h 9 v -7.5 h 2.4 v 17.6 h -2.4 v -8.1 h -9 v 8.1 h -2.4 v -17.6"
       fill="#000000"
       id="path2474" /><path
       class="atom-24"
       d="m 353.5,83 h 2.4 v 7.5 h 9 V 83 h 2.4 v 17.6 h -2.4 v -8.1 h -9 v 8.1 h -2.4 V 83"
       fill="#000000"
       id="path2476" /></g><text
     xml:space="preserve"
     transform="matrix(0.86411593,0,0,0.87188127,633.3841,80.093054)"
     id="text2742"
     style="font-size:21.3333px;line-height:0px;font-family:Arial;-inkscape-font-specification:Arial;text-align:center;white-space:pre;shape-inside:url(#rect2744);opacity:1;fill:#0a0a0a;stroke:#000000"><tspan
       x="145.85846"
       y="346.56049"
       id="tspan503">Codeine</tspan></text></g>
</svg>
