<svg xmlns="http://www.w3.org/2000/svg" xmlns:rdkit="http://www.rdkit.org/xml" xmlns:xlink="http://www.w3.org/1999/xlink" version="1.1" baseProfile="full" xml:space="preserve" width="600px" height="400px" viewBox="0 0 600 400">
<!-- END OF HEADER -->
<rect style="opacity:1.0;fill:#FFFFFF;stroke:none" width="600.0" height="400.0" x="0.0" y="0.0"> </rect>
<path class="bond-0 atom-0 atom-1" d="M 69.0,116.6 L 53.6,90.0" style="fill:none;fill-rule:evenodd;stroke:#000000;stroke-width:2.0px;stroke-linecap:butt;stroke-linejoin:miter;stroke-opacity:1"/>
<path class="bond-0 atom-0 atom-1" d="M 71.7,112.0 L 59.0,90.0" style="fill:none;fill-rule:evenodd;stroke:#000000;stroke-width:2.0px;stroke-linecap:butt;stroke-linejoin:miter;stroke-opacity:1"/>
<path class="bond-1 atom-1 atom-2" d="M 53.6,90.0 L 69.0,63.4" style="fill:none;fill-rule:evenodd;stroke:#000000;stroke-width:2.0px;stroke-linecap:butt;stroke-linejoin:miter;stroke-opacity:1"/>
<path class="bond-2 atom-2 atom-3" d="M 69.0,63.4 L 99.7,63.4" style="fill:none;fill-rule:evenodd;stroke:#000000;stroke-width:2.0px;stroke-linecap:butt;stroke-linejoin:miter;stroke-opacity:1"/>
<path class="bond-2 atom-2 atom-3" d="M 71.7,68.0 L 97.0,68.0" style="fill:none;fill-rule:evenodd;stroke:#000000;stroke-width:2.0px;stroke-linecap:butt;stroke-linejoin:miter;stroke-opacity:1"/>
<path class="bond-3 atom-3 atom-4" d="M 99.7,63.4 L 115.1,90.0" style="fill:none;fill-rule:evenodd;stroke:#000000;stroke-width:2.0px;stroke-linecap:butt;stroke-linejoin:miter;stroke-opacity:1"/>
<path class="bond-4 atom-4 atom-5" d="M 115.1,90.0 L 129.6,90.0" style="fill:none;fill-rule:evenodd;stroke:#000000;stroke-width:2.0px;stroke-linecap:butt;stroke-linejoin:miter;stroke-opacity:1"/>
<path class="bond-4 atom-4 atom-5" d="M 129.6,90.0 L 144.2,90.0" style="fill:none;fill-rule:evenodd;stroke:#A01EEF;stroke-width:2.0px;stroke-linecap:butt;stroke-linejoin:miter;stroke-opacity:1"/>
<path class="bond-5 atom-4 atom-6" d="M 115.1,90.0 L 99.7,116.6" style="fill:none;fill-rule:evenodd;stroke:#000000;stroke-width:2.0px;stroke-linecap:butt;stroke-linejoin:miter;stroke-opacity:1"/>
<path class="bond-5 atom-4 atom-6" d="M 109.7,90.0 L 97.0,112.0" style="fill:none;fill-rule:evenodd;stroke:#000000;stroke-width:2.0px;stroke-linecap:butt;stroke-linejoin:miter;stroke-opacity:1"/>
<path class="bond-6 atom-6 atom-0" d="M 99.7,116.6 L 69.0,116.6" style="fill:none;fill-rule:evenodd;stroke:#000000;stroke-width:2.0px;stroke-linecap:butt;stroke-linejoin:miter;stroke-opacity:1"/>
<path d="M 68.2,115.3 L 69.0,116.6 L 70.5,116.6" style="fill:none;stroke:#000000;stroke-width:2.0px;stroke-linecap:butt;stroke-linejoin:miter;stroke-opacity:1;"/>
<path d="M 54.4,91.3 L 53.6,90.0 L 54.4,88.7" style="fill:none;stroke:#000000;stroke-width:2.0px;stroke-linecap:butt;stroke-linejoin:miter;stroke-opacity:1;"/>
<path d="M 68.2,64.7 L 69.0,63.4 L 70.5,63.4" style="fill:none;stroke:#000000;stroke-width:2.0px;stroke-linecap:butt;stroke-linejoin:miter;stroke-opacity:1;"/>
<path d="M 98.2,63.4 L 99.7,63.4 L 100.5,64.7" style="fill:none;stroke:#000000;stroke-width:2.0px;stroke-linecap:butt;stroke-linejoin:miter;stroke-opacity:1;"/>
<path d="M 100.5,115.3 L 99.7,116.6 L 98.2,116.6" style="fill:none;stroke:#000000;stroke-width:2.0px;stroke-linecap:butt;stroke-linejoin:miter;stroke-opacity:1;"/>
<path class="atom-5" d="M 145.2 85.6 L 146.4 85.6 L 146.4 94.4 L 145.2 94.4 L 145.2 85.6 " fill="#A01EEF"/>
<path class="legend" d="M 65.3 190.8 Q 66.0 191.1, 66.5 191.3 Q 67.1 191.4, 67.6 191.4 Q 68.3 191.4, 68.7 191.1 Q 69.2 190.8, 69.2 190.2 Q 69.2 189.8, 68.9 189.6 Q 68.7 189.4, 68.4 189.3 Q 68.2 189.1, 67.5 188.9 Q 67.4 188.9, 66.6 188.6 Q 65.9 188.4, 65.5 187.8 Q 65.1 187.3, 65.1 186.5 Q 65.1 185.5, 65.9 184.8 Q 66.6 184.1, 68.1 184.1 Q 68.8 184.1, 69.3 184.3 Q 69.9 184.4, 70.5 184.7 L 70.1 185.8 Q 69.5 185.6, 69.1 185.5 Q 68.6 185.4, 68.1 185.4 Q 67.4 185.4, 67.0 185.7 Q 66.6 186.0, 66.6 186.5 Q 66.6 186.9, 66.9 187.1 Q 67.2 187.3, 67.9 187.6 Q 68.1 187.6, 68.2 187.7 L 68.6 187.8 Q 69.3 188.1, 69.7 188.3 Q 70.1 188.5, 70.4 189.0 Q 70.7 189.4, 70.7 190.2 Q 70.7 191.4, 69.8 192.0 Q 69.0 192.6, 67.6 192.6 Q 66.8 192.6, 66.2 192.5 Q 65.5 192.3, 64.8 192.0 L 65.3 190.8 " fill="#000000"/>
<path class="legend" d="M 72.1 188.4 Q 72.1 186.4, 73.0 185.3 Q 74.0 184.1, 76.0 184.1 Q 77.9 184.1, 78.8 185.5 L 77.8 186.2 Q 77.4 185.8, 77.0 185.6 Q 76.6 185.3, 76.0 185.3 Q 74.9 185.3, 74.2 186.1 Q 73.6 186.9, 73.6 188.4 Q 73.6 189.9, 74.2 190.7 Q 74.9 191.4, 76.1 191.4 Q 76.8 191.4, 77.2 191.3 Q 77.7 191.1, 78.3 190.9 L 78.7 191.9 Q 77.5 192.6, 76.0 192.6 Q 74.0 192.6, 73.0 191.5 Q 72.1 190.4, 72.1 188.4 " fill="#000000"/>
<path class="legend" d="M 79.8 190.3 Q 79.8 189.0, 80.8 188.2 Q 81.9 187.5, 83.8 187.5 L 85.0 187.5 L 85.0 187.2 Q 85.0 186.2, 84.6 185.8 Q 84.2 185.3, 83.2 185.3 Q 82.5 185.3, 82.0 185.4 Q 81.5 185.6, 80.7 185.9 L 80.2 184.9 Q 81.7 184.1, 83.2 184.1 Q 84.9 184.1, 85.7 184.9 Q 86.5 185.6, 86.5 187.2 L 86.5 192.5 L 85.4 192.5 Q 85.4 192.4, 85.3 192.2 Q 85.3 191.9, 85.2 191.5 Q 84.0 192.7, 82.5 192.7 Q 81.2 192.7, 80.5 192.0 Q 79.8 191.4, 79.8 190.3 M 81.3 190.2 Q 81.3 190.9, 81.7 191.2 Q 82.0 191.5, 82.8 191.5 Q 83.4 191.5, 84.0 191.2 Q 84.6 190.9, 85.0 190.4 L 85.0 188.6 L 83.9 188.6 Q 82.6 188.6, 81.9 189.0 Q 81.3 189.4, 81.3 190.2 " fill="#000000"/>
<path class="legend" d="M 88.3 185.4 L 88.3 184.3 L 89.8 184.3 L 89.8 183.1 Q 89.8 181.7, 90.5 181.0 Q 91.2 180.3, 92.4 180.3 Q 92.9 180.3, 93.4 180.5 Q 93.8 180.6, 94.4 180.8 L 93.9 181.8 Q 93.2 181.5, 92.5 181.5 Q 91.9 181.5, 91.6 181.9 Q 91.3 182.3, 91.3 183.0 L 91.3 184.3 L 93.8 184.3 L 93.8 185.4 L 91.3 185.4 L 91.3 195.0 L 89.8 195.0 L 89.8 185.4 L 88.3 185.4 " fill="#000000"/>
<path class="legend" d="M 94.5 185.4 L 94.5 184.3 L 95.9 184.3 L 95.9 183.1 Q 95.9 181.7, 96.7 181.0 Q 97.4 180.3, 98.6 180.3 Q 99.1 180.3, 99.6 180.5 Q 100.0 180.6, 100.5 180.8 L 100.1 181.8 Q 99.3 181.5, 98.7 181.5 Q 98.1 181.5, 97.8 181.9 Q 97.4 182.3, 97.4 183.0 L 97.4 184.3 L 100.0 184.3 L 100.0 185.4 L 97.4 185.4 L 97.4 195.0 L 95.9 195.0 L 95.9 185.4 L 94.5 185.4 " fill="#000000"/>
<path class="legend" d="M 100.7 188.4 Q 100.7 186.4, 101.7 185.3 Q 102.7 184.1, 104.6 184.1 Q 106.4 184.1, 107.4 185.3 Q 108.5 186.4, 108.5 188.4 Q 108.5 190.4, 107.4 191.5 Q 106.4 192.6, 104.6 192.6 Q 102.7 192.6, 101.7 191.5 Q 100.7 190.4, 100.7 188.4 M 102.2 188.4 Q 102.2 189.9, 102.8 190.7 Q 103.4 191.4, 104.6 191.4 Q 105.7 191.4, 106.3 190.7 Q 106.9 189.9, 106.9 188.4 Q 106.9 186.9, 106.3 186.1 Q 105.7 185.3, 104.6 185.3 Q 103.4 185.3, 102.8 186.1 Q 102.2 186.9, 102.2 188.4 " fill="#000000"/>
<path class="legend" d="M 109.8 180.4 L 111.2 180.4 L 111.2 192.5 L 109.8 192.5 L 109.8 180.4 " fill="#000000"/>
<path class="legend" d="M 120.6 180.4 L 120.6 192.5 L 119.4 192.5 L 119.2 191.5 Q 118.3 192.6, 116.8 192.6 Q 115.1 192.6, 114.1 191.6 Q 113.1 190.5, 113.1 188.5 Q 113.1 186.5, 114.3 185.3 Q 115.4 184.1, 117.4 184.1 Q 118.2 184.1, 119.1 184.4 L 119.1 180.4 L 120.6 180.4 M 116.9 191.4 Q 117.7 191.4, 118.3 191.0 Q 118.9 190.5, 119.1 189.7 L 119.1 185.6 Q 118.3 185.3, 117.4 185.3 Q 116.1 185.3, 115.4 186.2 Q 114.7 187.0, 114.7 188.5 Q 114.7 189.9, 115.2 190.7 Q 115.8 191.4, 116.9 191.4 " fill="#000000"/>
<path class="legend" d="" fill="#000000"/>
<path class="legend" d="M 129.0 191.2 L 131.4 191.2 L 131.4 182.8 L 128.7 183.6 L 128.3 182.7 L 131.8 181.1 L 132.9 181.3 L 132.9 191.2 L 135.2 191.2 L 135.2 192.5 L 129.0 192.5 L 129.0 191.2 " fill="#000000"/>
<path class="bond-0 atom-0 atom-1" d="M 282.6,87.6 L 295.5,87.6" style="fill:none;fill-rule:evenodd;stroke:#000000;stroke-width:2.0px;stroke-linecap:butt;stroke-linejoin:miter;stroke-opacity:1"/>
<path class="bond-0 atom-0 atom-1" d="M 295.5,87.6 L 308.4,87.6" style="fill:none;fill-rule:evenodd;stroke:#FF0000;stroke-width:2.0px;stroke-linecap:butt;stroke-linejoin:miter;stroke-opacity:1"/>
<path class="bond-0 atom-0 atom-1" d="M 282.6,92.2 L 295.5,92.2" style="fill:none;fill-rule:evenodd;stroke:#000000;stroke-width:2.0px;stroke-linecap:butt;stroke-linejoin:miter;stroke-opacity:1"/>
<path class="bond-0 atom-0 atom-1" d="M 295.5,92.2 L 308.4,92.2" style="fill:none;fill-rule:evenodd;stroke:#FF0000;stroke-width:2.0px;stroke-linecap:butt;stroke-linejoin:miter;stroke-opacity:1"/>
<path class="atom-1" d="M 309.4 90.0 Q 309.4 87.9, 310.4 86.7 Q 311.4 85.5, 313.4 85.5 Q 315.3 85.5, 316.3 86.7 Q 317.4 87.9, 317.4 90.0 Q 317.4 92.1, 316.3 93.3 Q 315.3 94.5, 313.4 94.5 Q 311.4 94.5, 310.4 93.3 Q 309.4 92.1, 309.4 90.0 M 313.4 93.5 Q 314.7 93.5, 315.4 92.6 Q 316.1 91.7, 316.1 90.0 Q 316.1 88.2, 315.4 87.4 Q 314.7 86.5, 313.4 86.5 Q 312.0 86.5, 311.3 87.4 Q 310.6 88.2, 310.6 90.0 Q 310.6 91.7, 311.3 92.6 Q 312.0 93.5, 313.4 93.5 " fill="#FF0000"/>
<path class="legend" d="M 264.9 190.8 Q 265.6 191.1, 266.1 191.3 Q 266.6 191.4, 267.2 191.4 Q 267.9 191.4, 268.3 191.1 Q 268.7 190.8, 268.7 190.2 Q 268.7 189.8, 268.5 189.6 Q 268.3 189.4, 268.0 189.3 Q 267.8 189.1, 267.0 188.9 Q 266.9 188.9, 266.2 188.6 Q 265.5 188.4, 265.1 187.8 Q 264.7 187.3, 264.7 186.5 Q 264.7 185.5, 265.4 184.8 Q 266.2 184.1, 267.7 184.1 Q 268.3 184.1, 268.9 184.3 Q 269.4 184.4, 270.0 184.7 L 269.6 185.8 Q 269.1 185.6, 268.6 185.5 Q 268.2 185.4, 267.7 185.4 Q 266.9 185.4, 266.6 185.7 Q 266.2 186.0, 266.2 186.5 Q 266.2 186.9, 266.5 187.1 Q 266.8 187.3, 267.5 187.6 Q 267.6 187.6, 267.8 187.7 L 268.2 187.8 Q 268.8 188.1, 269.2 188.3 Q 269.6 188.5, 269.9 189.0 Q 270.2 189.4, 270.2 190.2 Q 270.2 191.4, 269.4 192.0 Q 268.5 192.6, 267.2 192.6 Q 266.4 192.6, 265.7 192.5 Q 265.1 192.3, 264.4 192.0 L 264.9 190.8 " fill="#000000"/>
<path class="legend" d="M 271.6 188.4 Q 271.6 186.4, 272.6 185.3 Q 273.6 184.1, 275.6 184.1 Q 277.4 184.1, 278.4 185.5 L 277.4 186.2 Q 277.0 185.8, 276.6 185.6 Q 276.1 185.3, 275.6 185.3 Q 274.4 185.3, 273.8 186.1 Q 273.2 186.9, 273.2 188.4 Q 273.2 189.9, 273.8 190.7 Q 274.5 191.4, 275.7 191.4 Q 276.3 191.4, 276.8 191.3 Q 277.3 191.1, 277.8 190.9 L 278.3 191.9 Q 277.1 192.6, 275.5 192.6 Q 273.6 192.6, 272.6 191.5 Q 271.6 190.4, 271.6 188.4 " fill="#000000"/>
<path class="legend" d="M 279.4 190.3 Q 279.4 189.0, 280.4 188.2 Q 281.5 187.5, 283.4 187.5 L 284.6 187.5 L 284.6 187.2 Q 284.6 186.2, 284.2 185.8 Q 283.8 185.3, 282.7 185.3 Q 282.1 185.3, 281.6 185.4 Q 281.1 185.6, 280.3 185.9 L 279.8 184.9 Q 281.3 184.1, 282.8 184.1 Q 284.5 184.1, 285.3 184.9 Q 286.1 185.6, 286.1 187.2 L 286.1 192.5 L 285.0 192.5 Q 284.9 192.4, 284.9 192.2 Q 284.8 191.9, 284.7 191.5 Q 283.6 192.7, 282.1 192.7 Q 280.8 192.7, 280.1 192.0 Q 279.4 191.4, 279.4 190.3 M 280.9 190.2 Q 280.9 190.9, 281.2 191.2 Q 281.6 191.5, 282.3 191.5 Q 283.0 191.5, 283.6 191.2 Q 284.2 190.9, 284.6 190.4 L 284.6 188.6 L 283.5 188.6 Q 282.2 188.6, 281.5 189.0 Q 280.9 189.4, 280.9 190.2 " fill="#000000"/>
<path class="legend" d="M 287.9 185.4 L 287.9 184.3 L 289.4 184.3 L 289.4 183.1 Q 289.4 181.7, 290.1 181.0 Q 290.8 180.3, 292.0 180.3 Q 292.5 180.3, 293.0 180.5 Q 293.4 180.6, 293.9 180.8 L 293.5 181.8 Q 292.8 181.5, 292.1 181.5 Q 291.5 181.5, 291.2 181.9 Q 290.9 182.3, 290.9 183.0 L 290.9 184.3 L 293.4 184.3 L 293.4 185.4 L 290.9 185.4 L 290.9 195.0 L 289.4 195.0 L 289.4 185.4 L 287.9 185.4 " fill="#000000"/>
<path class="legend" d="M 294.1 185.4 L 294.1 184.3 L 295.5 184.3 L 295.5 183.1 Q 295.5 181.7, 296.3 181.0 Q 297.0 180.3, 298.2 180.3 Q 298.7 180.3, 299.2 180.5 Q 299.6 180.6, 300.1 180.8 L 299.7 181.8 Q 298.9 181.5, 298.3 181.5 Q 297.7 181.5, 297.4 181.9 Q 297.0 182.3, 297.0 183.0 L 297.0 184.3 L 299.6 184.3 L 299.6 185.4 L 297.0 185.4 L 297.0 195.0 L 295.5 195.0 L 295.5 185.4 L 294.1 185.4 " fill="#000000"/>
<path class="legend" d="M 300.3 188.4 Q 300.3 186.4, 301.3 185.3 Q 302.3 184.1, 304.2 184.1 Q 306.0 184.1, 307.0 185.3 Q 308.1 186.4, 308.1 188.4 Q 308.1 190.4, 307.0 191.5 Q 306.0 192.6, 304.2 192.6 Q 302.3 192.6, 301.3 191.5 Q 300.3 190.4, 300.3 188.4 M 301.8 188.4 Q 301.8 189.9, 302.4 190.7 Q 303.0 191.4, 304.2 191.4 Q 305.3 191.4, 305.9 190.7 Q 306.5 189.9, 306.5 188.4 Q 306.5 186.9, 305.9 186.1 Q 305.3 185.3, 304.2 185.3 Q 303.0 185.3, 302.4 186.1 Q 301.8 186.9, 301.8 188.4 " fill="#000000"/>
<path class="legend" d="M 309.4 180.4 L 310.8 180.4 L 310.8 192.5 L 309.4 192.5 L 309.4 180.4 " fill="#000000"/>
<path class="legend" d="M 320.2 180.4 L 320.2 192.5 L 319.0 192.5 L 318.8 191.5 Q 317.9 192.6, 316.4 192.6 Q 314.7 192.6, 313.7 191.6 Q 312.8 190.5, 312.8 188.5 Q 312.8 186.5, 313.9 185.3 Q 315.0 184.1, 317.0 184.1 Q 317.8 184.1, 318.7 184.4 L 318.7 180.4 L 320.2 180.4 M 316.5 191.4 Q 317.3 191.4, 317.9 191.0 Q 318.5 190.5, 318.7 189.7 L 318.7 185.6 Q 317.9 185.3, 317.0 185.3 Q 315.7 185.3, 315.0 186.2 Q 314.3 187.0, 314.3 188.5 Q 314.3 189.9, 314.9 190.7 Q 315.4 191.4, 316.5 191.4 " fill="#000000"/>
<path class="legend" d="" fill="#000000"/>
<path class="legend" d="M 328.0 183.3 Q 328.4 182.2, 329.4 181.7 Q 330.4 181.0, 331.8 181.0 Q 333.5 181.0, 334.5 182.0 Q 335.4 182.9, 335.4 184.6 Q 335.4 186.2, 334.2 187.8 Q 332.9 189.4, 330.4 191.2 L 335.6 191.2 L 335.6 192.5 L 328.0 192.5 L 328.0 191.4 Q 330.1 189.9, 331.3 188.8 Q 332.6 187.7, 333.2 186.7 Q 333.8 185.7, 333.8 184.6 Q 333.8 183.5, 333.3 182.9 Q 332.7 182.3, 331.8 182.3 Q 330.9 182.3, 330.3 182.7 Q 329.7 183.1, 329.2 183.9 L 328.0 183.3 " fill="#000000"/>
<path class="bond-0 atom-0 atom-1" d="M 519.7,134.5 L 518.3,134.1" style="fill:none;fill-rule:evenodd;stroke:#0000FF;stroke-width:2.0px;stroke-linecap:butt;stroke-linejoin:miter;stroke-opacity:1"/>
<path class="bond-0 atom-0 atom-1" d="M 518.3,134.1 L 517.0,133.6" style="fill:none;fill-rule:evenodd;stroke:#000000;stroke-width:2.0px;stroke-linecap:butt;stroke-linejoin:miter;stroke-opacity:1"/>
<path class="bond-1 atom-1 atom-2" d="M 517.0,133.6 L 513.7,117.6" style="fill:none;fill-rule:evenodd;stroke:#000000;stroke-width:2.0px;stroke-linecap:butt;stroke-linejoin:miter;stroke-opacity:1"/>
<path class="bond-2 atom-3 atom-2" d="M 521.6,95.7 L 522.2,95.9" style="fill:none;fill-rule:evenodd;stroke:#000000;stroke-width:1.0px;stroke-linecap:butt;stroke-linejoin:miter;stroke-opacity:1"/>
<path class="bond-2 atom-3 atom-2" d="M 520.1,98.7 L 521.3,99.1" style="fill:none;fill-rule:evenodd;stroke:#000000;stroke-width:1.0px;stroke-linecap:butt;stroke-linejoin:miter;stroke-opacity:1"/>
<path class="bond-2 atom-3 atom-2" d="M 518.6,101.7 L 520.4,102.3" style="fill:none;fill-rule:evenodd;stroke:#000000;stroke-width:1.0px;stroke-linecap:butt;stroke-linejoin:miter;stroke-opacity:1"/>
<path class="bond-2 atom-3 atom-2" d="M 517.2,104.7 L 519.6,105.6" style="fill:none;fill-rule:evenodd;stroke:#000000;stroke-width:1.0px;stroke-linecap:butt;stroke-linejoin:miter;stroke-opacity:1"/>
<path class="bond-2 atom-3 atom-2" d="M 515.7,107.7 L 518.7,108.8" style="fill:none;fill-rule:evenodd;stroke:#000000;stroke-width:1.0px;stroke-linecap:butt;stroke-linejoin:miter;stroke-opacity:1"/>
<path class="bond-2 atom-3 atom-2" d="M 514.2,110.7 L 517.8,112.0" style="fill:none;fill-rule:evenodd;stroke:#000000;stroke-width:1.0px;stroke-linecap:butt;stroke-linejoin:miter;stroke-opacity:1"/>
<path class="bond-2 atom-3 atom-2" d="M 512.8,113.7 L 516.9,115.2" style="fill:none;fill-rule:evenodd;stroke:#000000;stroke-width:1.0px;stroke-linecap:butt;stroke-linejoin:miter;stroke-opacity:1"/>
<path class="bond-3 atom-3 atom-4" d="M 523.0,92.7 L 496.3,107.8" style="fill:none;fill-rule:evenodd;stroke:#000000;stroke-width:2.0px;stroke-linecap:butt;stroke-linejoin:miter;stroke-opacity:1"/>
<path class="bond-4 atom-4 atom-5" d="M 496.3,107.8 L 489.7,137.8" style="fill:none;fill-rule:evenodd;stroke:#000000;stroke-width:2.0px;stroke-linecap:butt;stroke-linejoin:miter;stroke-opacity:1"/>
<path class="bond-4 atom-4 atom-5" d="M 491.4,109.4 L 485.9,134.3" style="fill:none;fill-rule:evenodd;stroke:#000000;stroke-width:2.0px;stroke-linecap:butt;stroke-linejoin:miter;stroke-opacity:1"/>
<path class="bond-5 atom-5 atom-6" d="M 489.7,137.8 L 460.4,147.1" style="fill:none;fill-rule:evenodd;stroke:#000000;stroke-width:2.0px;stroke-linecap:butt;stroke-linejoin:miter;stroke-opacity:1"/>
<path class="bond-6 atom-6 atom-7" d="M 460.4,147.1 L 437.8,126.4" style="fill:none;fill-rule:evenodd;stroke:#000000;stroke-width:2.0px;stroke-linecap:butt;stroke-linejoin:miter;stroke-opacity:1"/>
<path class="bond-6 atom-6 atom-7" d="M 461.6,142.1 L 442.7,124.8" style="fill:none;fill-rule:evenodd;stroke:#000000;stroke-width:2.0px;stroke-linecap:butt;stroke-linejoin:miter;stroke-opacity:1"/>
<path class="bond-7 atom-7 atom-8" d="M 437.8,126.4 L 444.4,96.4" style="fill:none;fill-rule:evenodd;stroke:#000000;stroke-width:2.0px;stroke-linecap:butt;stroke-linejoin:miter;stroke-opacity:1"/>
<path class="bond-8 atom-8 atom-9" d="M 444.4,96.4 L 435.5,88.3" style="fill:none;fill-rule:evenodd;stroke:#000000;stroke-width:2.0px;stroke-linecap:butt;stroke-linejoin:miter;stroke-opacity:1"/>
<path class="bond-8 atom-8 atom-9" d="M 435.5,88.3 L 426.7,80.2" style="fill:none;fill-rule:evenodd;stroke:#FF0000;stroke-width:2.0px;stroke-linecap:butt;stroke-linejoin:miter;stroke-opacity:1"/>
<path class="bond-9 atom-8 atom-10" d="M 444.4,96.4 L 473.6,87.1" style="fill:none;fill-rule:evenodd;stroke:#000000;stroke-width:2.0px;stroke-linecap:butt;stroke-linejoin:miter;stroke-opacity:1"/>
<path class="bond-9 atom-8 atom-10" d="M 448.2,99.9 L 472.5,92.2" style="fill:none;fill-rule:evenodd;stroke:#000000;stroke-width:2.0px;stroke-linecap:butt;stroke-linejoin:miter;stroke-opacity:1"/>
<path class="bond-10 atom-10 atom-11" d="M 473.6,87.1 L 478.7,75.9" style="fill:none;fill-rule:evenodd;stroke:#000000;stroke-width:2.0px;stroke-linecap:butt;stroke-linejoin:miter;stroke-opacity:1"/>
<path class="bond-10 atom-10 atom-11" d="M 478.7,75.9 L 483.8,64.7" style="fill:none;fill-rule:evenodd;stroke:#FF0000;stroke-width:2.0px;stroke-linecap:butt;stroke-linejoin:miter;stroke-opacity:1"/>
<path class="bond-11 atom-11 atom-12" d="M 491.3,59.7 L 504.1,61.1" style="fill:none;fill-rule:evenodd;stroke:#FF0000;stroke-width:2.0px;stroke-linecap:butt;stroke-linejoin:miter;stroke-opacity:1"/>
<path class="bond-11 atom-11 atom-12" d="M 504.1,61.1 L 516.9,62.6" style="fill:none;fill-rule:evenodd;stroke:#000000;stroke-width:2.0px;stroke-linecap:butt;stroke-linejoin:miter;stroke-opacity:1"/>
<path class="bond-12 atom-12 atom-13" d="M 516.9,62.6 L 539.8,42.2" style="fill:none;fill-rule:evenodd;stroke:#000000;stroke-width:2.0px;stroke-linecap:butt;stroke-linejoin:miter;stroke-opacity:1"/>
<path class="bond-13 atom-13 atom-14" d="M 539.8,42.2 L 569.0,51.9" style="fill:none;fill-rule:evenodd;stroke:#000000;stroke-width:2.0px;stroke-linecap:butt;stroke-linejoin:miter;stroke-opacity:1"/>
<path class="bond-14 atom-14 atom-15" d="M 569.0,51.9 L 575.2,82.0" style="fill:none;fill-rule:evenodd;stroke:#000000;stroke-width:2.0px;stroke-linecap:butt;stroke-linejoin:miter;stroke-opacity:1"/>
<path class="bond-14 atom-14 atom-15" d="M 565.1,55.3 L 570.2,80.3" style="fill:none;fill-rule:evenodd;stroke:#000000;stroke-width:2.0px;stroke-linecap:butt;stroke-linejoin:miter;stroke-opacity:1"/>
<path class="bond-15 atom-15 atom-16" d="M 575.2,82.0 L 552.2,102.4" style="fill:none;fill-rule:evenodd;stroke:#000000;stroke-width:2.0px;stroke-linecap:butt;stroke-linejoin:miter;stroke-opacity:1"/>
<path class="bond-16 atom-16 atom-17" d="M 552.2,102.4 L 558.4,132.4" style="fill:none;fill-rule:evenodd;stroke:#000000;stroke-width:2.0px;stroke-linecap:butt;stroke-linejoin:miter;stroke-opacity:1"/>
<path class="bond-17 atom-17 atom-18" d="M 558.4,132.4 L 517.5,151.1" style="fill:none;fill-rule:evenodd;stroke:#000000;stroke-width:2.0px;stroke-linecap:butt;stroke-linejoin:miter;stroke-opacity:1"/>
<path class="bond-18 atom-17 atom-0" d="M 558.4,132.4 L 547.6,135.1" style="fill:none;fill-rule:evenodd;stroke:#000000;stroke-width:2.0px;stroke-linecap:butt;stroke-linejoin:miter;stroke-opacity:1"/>
<path class="bond-18 atom-17 atom-0" d="M 547.6,135.1 L 536.8,137.7" style="fill:none;fill-rule:evenodd;stroke:#0000FF;stroke-width:2.0px;stroke-linecap:butt;stroke-linejoin:miter;stroke-opacity:1"/>
<path class="bond-19 atom-12 atom-3" d="M 516.9,62.6 L 523.0,92.7" style="fill:none;fill-rule:evenodd;stroke:#000000;stroke-width:2.0px;stroke-linecap:butt;stroke-linejoin:miter;stroke-opacity:1"/>
<path class="bond-20 atom-16 atom-3" d="M 552.2,102.4 L 523.0,92.7" style="fill:none;fill-rule:evenodd;stroke:#000000;stroke-width:2.0px;stroke-linecap:butt;stroke-linejoin:miter;stroke-opacity:1"/>
<path class="bond-21 atom-10 atom-4" d="M 473.6,87.1 L 496.3,107.8" style="fill:none;fill-rule:evenodd;stroke:#000000;stroke-width:2.0px;stroke-linecap:butt;stroke-linejoin:miter;stroke-opacity:1"/>
<path class="bond-22 atom-18 atom-5" d="M 517.5,151.1 L 489.7,137.8" style="fill:none;fill-rule:evenodd;stroke:#000000;stroke-width:2.0px;stroke-linecap:butt;stroke-linejoin:miter;stroke-opacity:1"/>
<path class="bond-23 atom-12 atom-19" d="M 515.5,59.4 L 516.1,59.2" style="fill:none;fill-rule:evenodd;stroke:#000000;stroke-width:1.0px;stroke-linecap:butt;stroke-linejoin:miter;stroke-opacity:1"/>
<path class="bond-23 atom-12 atom-19" d="M 514.2,56.2 L 515.4,55.8" style="fill:none;fill-rule:evenodd;stroke:#000000;stroke-width:1.0px;stroke-linecap:butt;stroke-linejoin:miter;stroke-opacity:1"/>
<path class="bond-23 atom-12 atom-19" d="M 512.8,53.0 L 514.7,52.4" style="fill:none;fill-rule:evenodd;stroke:#000000;stroke-width:1.0px;stroke-linecap:butt;stroke-linejoin:miter;stroke-opacity:1"/>
<path class="bond-23 atom-12 atom-19" d="M 511.5,49.8 L 513.9,49.1" style="fill:none;fill-rule:evenodd;stroke:#000000;stroke-width:1.0px;stroke-linecap:butt;stroke-linejoin:miter;stroke-opacity:1"/>
<path class="bond-23 atom-12 atom-19" d="M 510.1,46.6 L 513.2,45.7" style="fill:none;fill-rule:evenodd;stroke:#000000;stroke-width:1.0px;stroke-linecap:butt;stroke-linejoin:miter;stroke-opacity:1"/>
<path class="bond-23 atom-12 atom-19" d="M 508.8,43.5 L 512.4,42.3" style="fill:none;fill-rule:evenodd;stroke:#000000;stroke-width:1.0px;stroke-linecap:butt;stroke-linejoin:miter;stroke-opacity:1"/>
<path class="bond-23 atom-12 atom-19" d="M 507.4,40.3 L 511.7,38.9" style="fill:none;fill-rule:evenodd;stroke:#000000;stroke-width:1.0px;stroke-linecap:butt;stroke-linejoin:miter;stroke-opacity:1"/>
<path class="bond-24 atom-16 atom-20" d="M 555.7,103.2 L 555.5,103.8" style="fill:none;fill-rule:evenodd;stroke:#000000;stroke-width:1.0px;stroke-linecap:butt;stroke-linejoin:miter;stroke-opacity:1"/>
<path class="bond-24 atom-16 atom-20" d="M 559.2,104.0 L 558.8,105.2" style="fill:none;fill-rule:evenodd;stroke:#000000;stroke-width:1.0px;stroke-linecap:butt;stroke-linejoin:miter;stroke-opacity:1"/>
<path class="bond-24 atom-16 atom-20" d="M 562.7,104.8 L 562.1,106.7" style="fill:none;fill-rule:evenodd;stroke:#000000;stroke-width:1.0px;stroke-linecap:butt;stroke-linejoin:miter;stroke-opacity:1"/>
<path class="bond-24 atom-16 atom-20" d="M 566.2,105.7 L 565.4,108.1" style="fill:none;fill-rule:evenodd;stroke:#000000;stroke-width:1.0px;stroke-linecap:butt;stroke-linejoin:miter;stroke-opacity:1"/>
<path class="bond-24 atom-16 atom-20" d="M 569.7,106.5 L 568.7,109.5" style="fill:none;fill-rule:evenodd;stroke:#000000;stroke-width:1.0px;stroke-linecap:butt;stroke-linejoin:miter;stroke-opacity:1"/>
<path class="bond-24 atom-16 atom-20" d="M 573.2,107.3 L 572.0,111.0" style="fill:none;fill-rule:evenodd;stroke:#000000;stroke-width:1.0px;stroke-linecap:butt;stroke-linejoin:miter;stroke-opacity:1"/>
<path class="bond-24 atom-16 atom-20" d="M 576.7,108.1 L 575.2,112.4" style="fill:none;fill-rule:evenodd;stroke:#000000;stroke-width:1.0px;stroke-linecap:butt;stroke-linejoin:miter;stroke-opacity:1"/>
<path class="bond-25 atom-17 atom-21" d="M 561.9,133.3 L 561.7,133.9" style="fill:none;fill-rule:evenodd;stroke:#000000;stroke-width:1.0px;stroke-linecap:butt;stroke-linejoin:miter;stroke-opacity:1"/>
<path class="bond-25 atom-17 atom-21" d="M 565.4,134.1 L 564.9,135.3" style="fill:none;fill-rule:evenodd;stroke:#000000;stroke-width:1.0px;stroke-linecap:butt;stroke-linejoin:miter;stroke-opacity:1"/>
<path class="bond-25 atom-17 atom-21" d="M 568.8,134.9 L 568.2,136.7" style="fill:none;fill-rule:evenodd;stroke:#000000;stroke-width:1.0px;stroke-linecap:butt;stroke-linejoin:miter;stroke-opacity:1"/>
<path class="bond-25 atom-17 atom-21" d="M 572.3,135.8 L 571.5,138.2" style="fill:none;fill-rule:evenodd;stroke:#000000;stroke-width:1.0px;stroke-linecap:butt;stroke-linejoin:miter;stroke-opacity:1"/>
<path class="bond-25 atom-17 atom-21" d="M 575.8,136.6 L 574.8,139.6" style="fill:none;fill-rule:evenodd;stroke:#000000;stroke-width:1.0px;stroke-linecap:butt;stroke-linejoin:miter;stroke-opacity:1"/>
<path class="bond-25 atom-17 atom-21" d="M 579.3,137.4 L 578.1,141.0" style="fill:none;fill-rule:evenodd;stroke:#000000;stroke-width:1.0px;stroke-linecap:butt;stroke-linejoin:miter;stroke-opacity:1"/>
<path class="bond-25 atom-17 atom-21" d="M 582.8,138.2 L 581.4,142.5" style="fill:none;fill-rule:evenodd;stroke:#000000;stroke-width:1.0px;stroke-linecap:butt;stroke-linejoin:miter;stroke-opacity:1"/>
<path d="M 517.0,133.6 L 517.0,133.6 L 516.8,132.8" style="fill:none;stroke:#000000;stroke-width:2.0px;stroke-linecap:butt;stroke-linejoin:miter;stroke-opacity:1;"/>
<path d="M 461.9,146.7 L 460.4,147.1 L 459.3,146.1" style="fill:none;stroke:#000000;stroke-width:2.0px;stroke-linecap:butt;stroke-linejoin:miter;stroke-opacity:1;"/>
<path d="M 438.9,127.4 L 437.8,126.4 L 438.1,124.9" style="fill:none;stroke:#000000;stroke-width:2.0px;stroke-linecap:butt;stroke-linejoin:miter;stroke-opacity:1;"/>
<path d="M 538.7,43.2 L 539.8,42.2 L 541.3,42.7" style="fill:none;stroke:#000000;stroke-width:2.0px;stroke-linecap:butt;stroke-linejoin:miter;stroke-opacity:1;"/>
<path d="M 567.5,51.4 L 569.0,51.9 L 569.3,53.4" style="fill:none;stroke:#000000;stroke-width:2.0px;stroke-linecap:butt;stroke-linejoin:miter;stroke-opacity:1;"/>
<path d="M 574.8,80.5 L 575.2,82.0 L 574.0,83.0" style="fill:none;stroke:#000000;stroke-width:2.0px;stroke-linecap:butt;stroke-linejoin:miter;stroke-opacity:1;"/>
<path d="M 519.5,150.1 L 517.5,151.1 L 516.1,150.4" style="fill:none;stroke:#000000;stroke-width:2.0px;stroke-linecap:butt;stroke-linejoin:miter;stroke-opacity:1;"/>
<path class="atom-0" d="M 520.7 134.4 L 521.9 134.4 L 521.9 138.1 L 526.3 138.1 L 526.3 134.4 L 527.5 134.4 L 527.5 143.1 L 526.3 143.1 L 526.3 139.1 L 521.9 139.1 L 521.9 143.1 L 520.7 143.1 L 520.7 134.4 " fill="#0000FF"/>
<path class="atom-0" d="M 530.6 134.4 L 533.4 139.1 Q 533.7 139.5, 534.2 140.3 Q 534.6 141.2, 534.6 141.2 L 534.6 134.4 L 535.8 134.4 L 535.8 143.1 L 534.6 143.1 L 531.6 138.1 Q 531.2 137.5, 530.8 136.8 Q 530.4 136.2, 530.3 136.0 L 530.3 143.1 L 529.2 143.1 L 529.2 134.4 L 530.6 134.4 " fill="#0000FF"/>
<path class="atom-9" d="M 409.1 71.4 L 410.3 71.4 L 410.3 75.1 L 414.7 75.1 L 414.7 71.4 L 415.9 71.4 L 415.9 80.1 L 414.7 80.1 L 414.7 76.1 L 410.3 76.1 L 410.3 80.1 L 409.1 80.1 L 409.1 71.4 " fill="#FF0000"/>
<path class="atom-9" d="M 417.7 75.7 Q 417.7 73.6, 418.7 72.5 Q 419.7 71.3, 421.7 71.3 Q 423.6 71.3, 424.6 72.5 Q 425.7 73.6, 425.7 75.7 Q 425.7 77.8, 424.6 79.0 Q 423.6 80.2, 421.7 80.2 Q 419.8 80.2, 418.7 79.0 Q 417.7 77.8, 417.7 75.7 M 421.7 79.2 Q 423.0 79.2, 423.7 78.4 Q 424.4 77.5, 424.4 75.7 Q 424.4 74.0, 423.7 73.1 Q 423.0 72.3, 421.7 72.3 Q 420.3 72.3, 419.6 73.1 Q 418.9 74.0, 418.9 75.7 Q 418.9 77.5, 419.6 78.4 Q 420.3 79.2, 421.7 79.2 " fill="#FF0000"/>
<path class="atom-11" d="M 482.3 59.2 Q 482.3 57.1, 483.4 55.9 Q 484.4 54.7, 486.3 54.7 Q 488.3 54.7, 489.3 55.9 Q 490.3 57.1, 490.3 59.2 Q 490.3 61.3, 489.3 62.5 Q 488.2 63.7, 486.3 63.7 Q 484.4 63.7, 483.4 62.5 Q 482.3 61.3, 482.3 59.2 M 486.3 62.7 Q 487.7 62.7, 488.4 61.8 Q 489.1 60.9, 489.1 59.2 Q 489.1 57.5, 488.4 56.6 Q 487.7 55.7, 486.3 55.7 Q 485.0 55.7, 484.3 56.6 Q 483.6 57.4, 483.6 59.2 Q 483.6 60.9, 484.3 61.8 Q 485.0 62.7, 486.3 62.7 " fill="#FF0000"/>
<path class="atom-19" d="M 504.2 28.9 L 505.3 28.9 L 505.3 32.6 L 509.8 32.6 L 509.8 28.9 L 511.0 28.9 L 511.0 37.6 L 509.8 37.6 L 509.8 33.6 L 505.3 33.6 L 505.3 37.6 L 504.2 37.6 L 504.2 28.9 " fill="#000000"/>
<path class="atom-20" d="M 577.9 107.7 L 579.1 107.7 L 579.1 111.4 L 583.6 111.4 L 583.6 107.7 L 584.7 107.7 L 584.7 116.4 L 583.6 116.4 L 583.6 112.4 L 579.1 112.4 L 579.1 116.4 L 577.9 116.4 L 577.9 107.7 " fill="#000000"/>
<path class="atom-21" d="M 584.1 137.8 L 585.3 137.8 L 585.3 141.5 L 589.7 141.5 L 589.7 137.8 L 590.9 137.8 L 590.9 146.5 L 589.7 146.5 L 589.7 142.5 L 585.3 142.5 L 585.3 146.5 L 584.1 146.5 L 584.1 137.8 " fill="#000000"/>
<path class="legend" d="M 464.9 190.8 Q 465.6 191.1, 466.1 191.3 Q 466.6 191.4, 467.2 191.4 Q 467.9 191.4, 468.3 191.1 Q 468.7 190.8, 468.7 190.2 Q 468.7 189.8, 468.5 189.6 Q 468.3 189.4, 468.0 189.3 Q 467.8 189.1, 467.0 188.9 Q 466.9 188.9, 466.2 188.6 Q 465.5 188.4, 465.1 187.8 Q 464.7 187.3, 464.7 186.5 Q 464.7 185.5, 465.4 184.8 Q 466.2 184.1, 467.7 184.1 Q 468.3 184.1, 468.9 184.3 Q 469.4 184.4, 470.0 184.7 L 469.6 185.8 Q 469.1 185.6, 468.6 185.5 Q 468.2 185.4, 467.7 185.4 Q 466.9 185.4, 466.6 185.7 Q 466.2 186.0, 466.2 186.5 Q 466.2 186.9, 466.5 187.1 Q 466.8 187.3, 467.5 187.6 Q 467.6 187.6, 467.8 187.7 L 468.2 187.8 Q 468.8 188.1, 469.2 188.3 Q 469.7 188.5, 469.9 189.0 Q 470.2 189.4, 470.2 190.2 Q 470.2 191.4, 469.4 192.0 Q 468.5 192.6, 467.2 192.6 Q 466.4 192.6, 465.7 192.5 Q 465.1 192.3, 464.4 192.0 L 464.9 190.8 " fill="#000000"/>
<path class="legend" d="M 471.6 188.4 Q 471.6 186.4, 472.6 185.3 Q 473.6 184.1, 475.6 184.1 Q 477.4 184.1, 478.4 185.5 L 477.4 186.2 Q 477.0 185.8, 476.6 185.6 Q 476.1 185.3, 475.6 185.3 Q 474.4 185.3, 473.8 186.1 Q 473.2 186.9, 473.2 188.4 Q 473.2 189.9, 473.8 190.7 Q 474.5 191.4, 475.7 191.4 Q 476.3 191.4, 476.8 191.3 Q 477.3 191.1, 477.8 190.9 L 478.3 191.9 Q 477.1 192.6, 475.6 192.6 Q 473.6 192.6, 472.6 191.5 Q 471.6 190.4, 471.6 188.4 " fill="#000000"/>
<path class="legend" d="M 479.4 190.3 Q 479.4 189.0, 480.4 188.2 Q 481.5 187.5, 483.4 187.5 L 484.6 187.5 L 484.6 187.2 Q 484.6 186.2, 484.2 185.8 Q 483.8 185.3, 482.8 185.3 Q 482.1 185.3, 481.6 185.4 Q 481.1 185.6, 480.3 185.9 L 479.8 184.9 Q 481.3 184.1, 482.8 184.1 Q 484.5 184.1, 485.3 184.9 Q 486.1 185.6, 486.1 187.2 L 486.1 192.5 L 485.0 192.5 Q 484.9 192.4, 484.9 192.2 Q 484.9 191.9, 484.8 191.5 Q 483.6 192.7, 482.1 192.7 Q 480.8 192.7, 480.1 192.0 Q 479.4 191.4, 479.4 190.3 M 480.9 190.2 Q 480.9 190.9, 481.3 191.2 Q 481.6 191.5, 482.4 191.5 Q 483.0 191.5, 483.6 191.2 Q 484.2 190.9, 484.6 190.4 L 484.6 188.6 L 483.5 188.6 Q 482.2 188.6, 481.5 189.0 Q 480.9 189.4, 480.9 190.2 " fill="#000000"/>
<path class="legend" d="M 487.9 185.4 L 487.9 184.3 L 489.4 184.3 L 489.4 183.1 Q 489.4 181.7, 490.1 181.0 Q 490.8 180.3, 492.0 180.3 Q 492.5 180.3, 493.0 180.5 Q 493.4 180.6, 494.0 180.8 L 493.5 181.8 Q 492.8 181.5, 492.1 181.5 Q 491.5 181.5, 491.2 181.9 Q 490.9 182.3, 490.9 183.0 L 490.9 184.3 L 493.4 184.3 L 493.4 185.4 L 490.9 185.4 L 490.9 195.0 L 489.4 195.0 L 489.4 185.4 L 487.9 185.4 " fill="#000000"/>
<path class="legend" d="M 494.1 185.4 L 494.1 184.3 L 495.5 184.3 L 495.5 183.1 Q 495.5 181.7, 496.3 181.0 Q 497.0 180.3, 498.2 180.3 Q 498.7 180.3, 499.2 180.5 Q 499.6 180.6, 500.1 180.8 L 499.7 181.8 Q 498.9 181.5, 498.3 181.5 Q 497.7 181.5, 497.4 181.9 Q 497.0 182.3, 497.0 183.0 L 497.0 184.3 L 499.6 184.3 L 499.6 185.4 L 497.0 185.4 L 497.0 195.0 L 495.5 195.0 L 495.5 185.4 L 494.1 185.4 " fill="#000000"/>
<path class="legend" d="M 500.3 188.4 Q 500.3 186.4, 501.3 185.3 Q 502.3 184.1, 504.2 184.1 Q 506.0 184.1, 507.1 185.3 Q 508.1 186.4, 508.1 188.4 Q 508.1 190.4, 507.1 191.5 Q 506.0 192.6, 504.2 192.6 Q 502.3 192.6, 501.3 191.5 Q 500.3 190.4, 500.3 188.4 M 501.8 188.4 Q 501.8 189.9, 502.4 190.7 Q 503.0 191.4, 504.2 191.4 Q 505.3 191.4, 505.9 190.7 Q 506.5 189.9, 506.5 188.4 Q 506.5 186.9, 505.9 186.1 Q 505.3 185.3, 504.2 185.3 Q 503.0 185.3, 502.4 186.1 Q 501.8 186.9, 501.8 188.4 " fill="#000000"/>
<path class="legend" d="M 509.4 180.4 L 510.8 180.4 L 510.8 192.5 L 509.4 192.5 L 509.4 180.4 " fill="#000000"/>
<path class="legend" d="M 520.2 180.4 L 520.2 192.5 L 519.0 192.5 L 518.8 191.5 Q 517.9 192.6, 516.4 192.6 Q 514.7 192.6, 513.7 191.6 Q 512.8 190.5, 512.8 188.5 Q 512.8 186.5, 513.9 185.3 Q 515.0 184.1, 517.0 184.1 Q 517.8 184.1, 518.7 184.4 L 518.7 180.4 L 520.2 180.4 M 516.5 191.4 Q 517.3 191.4, 517.9 191.0 Q 518.5 190.5, 518.7 189.7 L 518.7 185.6 Q 517.9 185.3, 517.0 185.3 Q 515.8 185.3, 515.0 186.2 Q 514.3 187.0, 514.3 188.5 Q 514.3 189.9, 514.9 190.7 Q 515.4 191.4, 516.5 191.4 " fill="#000000"/>
<path class="legend" d="" fill="#000000"/>
<path class="legend" d="M 533.4 186.5 Q 534.5 186.9, 535.1 187.6 Q 535.6 188.3, 535.6 189.4 Q 535.6 190.4, 535.1 191.1 Q 534.6 191.8, 533.8 192.3 Q 532.9 192.7, 531.7 192.7 Q 530.5 192.7, 529.6 192.2 Q 528.7 191.8, 528.0 191.0 L 528.9 190.0 Q 529.6 190.8, 530.2 191.1 Q 530.8 191.4, 531.7 191.4 Q 532.7 191.4, 533.4 190.8 Q 534.0 190.3, 534.0 189.4 Q 534.0 188.2, 533.3 187.7 Q 532.7 187.2, 531.3 187.2 L 530.5 187.2 L 530.5 186.0 L 531.2 186.0 Q 532.4 186.0, 533.1 185.5 Q 533.8 185.0, 533.8 183.9 Q 533.8 183.2, 533.2 182.8 Q 532.7 182.3, 531.7 182.3 Q 530.8 182.3, 530.2 182.7 Q 529.6 183.0, 529.2 183.8 L 528.1 183.3 Q 528.5 182.3, 529.4 181.7 Q 530.4 181.0, 531.7 181.0 Q 533.4 181.0, 534.4 181.8 Q 535.4 182.6, 535.4 183.9 Q 535.4 184.9, 534.9 185.5 Q 534.4 186.2, 533.4 186.5 " fill="#000000"/>
<path class="atom-0" d="M 89.6 287.9 Q 89.6 285.7, 90.6 284.6 Q 91.6 283.4, 93.5 283.4 Q 95.3 283.4, 96.3 284.7 L 95.5 285.4 Q 94.8 284.4, 93.5 284.4 Q 92.2 284.4, 91.5 285.3 Q 90.8 286.2, 90.8 287.9 Q 90.8 289.6, 91.6 290.5 Q 92.3 291.4, 93.7 291.4 Q 94.6 291.4, 95.8 290.8 L 96.1 291.7 Q 95.6 292.0, 95.0 292.2 Q 94.3 292.3, 93.5 292.3 Q 91.6 292.3, 90.6 291.2 Q 89.6 290.0, 89.6 287.9 " fill="#000000"/>
<path class="atom-0" d="M 97.5 283.5 L 98.6 283.5 L 98.6 287.2 L 103.1 287.2 L 103.1 283.5 L 104.3 283.5 L 104.3 292.2 L 103.1 292.2 L 103.1 288.2 L 98.6 288.2 L 98.6 292.2 L 97.5 292.2 L 97.5 283.5 " fill="#000000"/>
<path class="atom-0" d="M 109.7 294.6 L 110.4 294.6 L 110.4 295.3 L 109.7 295.3 L 109.7 296.6 L 109.0 296.6 L 109.0 295.3 L 106.0 295.3 L 106.0 294.7 L 108.5 290.8 L 109.7 290.8 L 109.7 294.6 M 106.9 294.6 L 109.0 294.6 L 109.0 291.4 L 106.9 294.6 " fill="#000000"/>
<path class="legend" d="M 64.3 390.8 Q 65.0 391.1, 65.5 391.3 Q 66.0 391.4, 66.6 391.4 Q 67.3 391.4, 67.7 391.1 Q 68.1 390.8, 68.1 390.2 Q 68.1 389.8, 67.9 389.6 Q 67.7 389.4, 67.4 389.3 Q 67.2 389.1, 66.4 388.9 Q 66.3 388.9, 65.6 388.6 Q 64.9 388.4, 64.5 387.8 Q 64.1 387.3, 64.1 386.5 Q 64.1 385.5, 64.8 384.8 Q 65.6 384.1, 67.1 384.1 Q 67.7 384.1, 68.3 384.3 Q 68.8 384.4, 69.4 384.7 L 69.0 385.8 Q 68.5 385.6, 68.0 385.5 Q 67.6 385.4, 67.1 385.4 Q 66.3 385.4, 66.0 385.7 Q 65.6 386.0, 65.6 386.5 Q 65.6 386.9, 65.9 387.1 Q 66.2 387.3, 66.9 387.6 Q 67.0 387.6, 67.2 387.7 L 67.6 387.8 Q 68.2 388.1, 68.6 388.3 Q 69.1 388.5, 69.3 389.0 Q 69.6 389.4, 69.6 390.2 Q 69.6 391.4, 68.8 392.0 Q 67.9 392.6, 66.6 392.6 Q 65.8 392.6, 65.1 392.5 Q 64.5 392.3, 63.8 392.0 L 64.3 390.8 " fill="#000000"/>
<path class="legend" d="M 71.0 388.4 Q 71.0 386.4, 72.0 385.3 Q 73.0 384.1, 75.0 384.1 Q 76.9 384.1, 77.8 385.5 L 76.8 386.2 Q 76.4 385.8, 76.0 385.6 Q 75.6 385.3, 75.0 385.3 Q 73.8 385.3, 73.2 386.1 Q 72.6 386.9, 72.6 388.4 Q 72.6 389.9, 73.2 390.7 Q 73.9 391.4, 75.1 391.4 Q 75.7 391.4, 76.2 391.3 Q 76.7 391.1, 77.3 390.9 L 77.7 391.9 Q 76.5 392.6, 75.0 392.6 Q 73.0 392.6, 72.0 391.5 Q 71.0 390.4, 71.0 388.4 " fill="#000000"/>
<path class="legend" d="M 78.8 390.3 Q 78.8 389.0, 79.8 388.2 Q 80.9 387.5, 82.8 387.5 L 84.0 387.5 L 84.0 387.2 Q 84.0 386.2, 83.6 385.8 Q 83.2 385.3, 82.2 385.3 Q 81.5 385.3, 81.0 385.4 Q 80.5 385.6, 79.7 385.9 L 79.2 384.9 Q 80.8 384.1, 82.2 384.1 Q 84.0 384.1, 84.8 384.9 Q 85.6 385.6, 85.6 387.2 L 85.6 392.5 L 84.4 392.5 Q 84.4 392.4, 84.3 392.2 Q 84.3 391.9, 84.2 391.5 Q 83.0 392.7, 81.5 392.7 Q 80.3 392.7, 79.5 392.0 Q 78.8 391.4, 78.8 390.3 M 80.3 390.2 Q 80.3 390.9, 80.7 391.2 Q 81.1 391.5, 81.8 391.5 Q 82.4 391.5, 83.0 391.2 Q 83.6 390.9, 84.0 390.4 L 84.0 388.6 L 82.9 388.6 Q 81.6 388.6, 80.9 389.0 Q 80.3 389.4, 80.3 390.2 " fill="#000000"/>
<path class="legend" d="M 87.4 385.4 L 87.4 384.3 L 88.8 384.3 L 88.8 383.1 Q 88.8 381.7, 89.5 381.0 Q 90.3 380.3, 91.4 380.3 Q 92.0 380.3, 92.4 380.5 Q 92.9 380.6, 93.4 380.8 L 92.9 381.8 Q 92.2 381.5, 91.6 381.5 Q 91.0 381.5, 90.6 381.9 Q 90.3 382.3, 90.3 383.0 L 90.3 384.3 L 92.8 384.3 L 92.8 385.4 L 90.3 385.4 L 90.3 395.0 L 88.8 395.0 L 88.8 385.4 L 87.4 385.4 " fill="#000000"/>
<path class="legend" d="M 93.5 385.4 L 93.5 384.3 L 95.0 384.3 L 95.0 383.1 Q 95.0 381.7, 95.7 381.0 Q 96.4 380.3, 97.6 380.3 Q 98.2 380.3, 98.6 380.5 Q 99.1 380.6, 99.6 380.8 L 99.1 381.8 Q 98.4 381.5, 97.7 381.5 Q 97.2 381.5, 96.8 381.9 Q 96.5 382.3, 96.5 383.0 L 96.5 384.3 L 99.0 384.3 L 99.0 385.4 L 96.5 385.4 L 96.5 395.0 L 95.0 395.0 L 95.0 385.4 L 93.5 385.4 " fill="#000000"/>
<path class="legend" d="M 99.7 388.4 Q 99.7 386.4, 100.7 385.3 Q 101.8 384.1, 103.6 384.1 Q 105.5 384.1, 106.5 385.3 Q 107.5 386.4, 107.5 388.4 Q 107.5 390.4, 106.5 391.5 Q 105.5 392.6, 103.6 392.6 Q 101.8 392.6, 100.7 391.5 Q 99.7 390.4, 99.7 388.4 M 101.3 388.4 Q 101.3 389.9, 101.9 390.7 Q 102.5 391.4, 103.6 391.4 Q 104.8 391.4, 105.4 390.7 Q 106.0 389.9, 106.0 388.4 Q 106.0 386.9, 105.4 386.1 Q 104.8 385.3, 103.6 385.3 Q 102.5 385.3, 101.9 386.1 Q 101.3 386.9, 101.3 388.4 " fill="#000000"/>
<path class="legend" d="M 108.8 380.4 L 110.3 380.4 L 110.3 392.5 L 108.8 392.5 L 108.8 380.4 " fill="#000000"/>
<path class="legend" d="M 119.7 380.4 L 119.7 392.5 L 118.5 392.5 L 118.3 391.5 Q 117.4 392.6, 115.9 392.6 Q 114.2 392.6, 113.2 391.6 Q 112.3 390.5, 112.3 388.5 Q 112.3 386.5, 113.4 385.3 Q 114.5 384.1, 116.5 384.1 Q 117.3 384.1, 118.2 384.4 L 118.2 380.4 L 119.7 380.4 M 116.0 391.4 Q 116.8 391.4, 117.4 391.0 Q 118.0 390.5, 118.2 389.7 L 118.2 385.6 Q 117.4 385.3, 116.5 385.3 Q 115.2 385.3, 114.5 386.2 Q 113.8 387.0, 113.8 388.5 Q 113.8 389.9, 114.3 390.7 Q 114.9 391.4, 116.0 391.4 " fill="#000000"/>
<path class="legend" d="" fill="#000000"/>
<path class="legend" d="M 134.8 388.6 L 136.2 388.6 L 136.2 389.9 L 134.8 389.9 L 134.8 392.5 L 133.3 392.5 L 133.3 389.9 L 127.5 389.9 L 127.5 388.9 L 132.4 381.2 L 134.8 381.2 L 134.8 388.6 M 129.3 388.6 L 133.3 388.6 L 133.3 382.2 L 129.3 388.6 " fill="#000000"/>
<path class="bond-0 atom-0 atom-1" d="M 313.3,290.0 L 286.7,274.6" style="fill:none;fill-rule:evenodd;stroke:#000000;stroke-width:2.0px;stroke-linecap:butt;stroke-linejoin:miter;stroke-opacity:1"/>
<path class="bond-1 atom-1 atom-2" d="M 286.7,274.6 L 286.7,305.4" style="fill:none;fill-rule:evenodd;stroke:#000000;stroke-width:2.0px;stroke-linecap:butt;stroke-linejoin:miter;stroke-opacity:1"/>
<path class="bond-2 atom-2 atom-0" d="M 286.7,305.4 L 313.3,290.0" style="fill:none;fill-rule:evenodd;stroke:#000000;stroke-width:2.0px;stroke-linecap:butt;stroke-linejoin:miter;stroke-opacity:1"/>
<path d="M 312.0,289.2 L 313.3,290.0 L 312.0,290.8" style="fill:none;stroke:#000000;stroke-width:2.0px;stroke-linecap:butt;stroke-linejoin:miter;stroke-opacity:1;"/>
<path d="M 288.0,275.4 L 286.7,274.6 L 286.7,276.2" style="fill:none;stroke:#000000;stroke-width:2.0px;stroke-linecap:butt;stroke-linejoin:miter;stroke-opacity:1;"/>
<path d="M 286.7,303.8 L 286.7,305.4 L 288.0,304.6" style="fill:none;stroke:#000000;stroke-width:2.0px;stroke-linecap:butt;stroke-linejoin:miter;stroke-opacity:1;"/>
<path class="legend" d="M 264.8 390.8 Q 265.6 391.1, 266.1 391.3 Q 266.6 391.4, 267.2 391.4 Q 267.9 391.4, 268.3 391.1 Q 268.7 390.8, 268.7 390.2 Q 268.7 389.8, 268.5 389.6 Q 268.3 389.4, 268.0 389.3 Q 267.7 389.1, 267.0 388.9 Q 266.9 388.9, 266.2 388.6 Q 265.4 388.4, 265.0 387.8 Q 264.7 387.3, 264.7 386.5 Q 264.7 385.5, 265.4 384.8 Q 266.2 384.1, 267.7 384.1 Q 268.3 384.1, 268.8 384.3 Q 269.4 384.4, 270.0 384.7 L 269.6 385.8 Q 269.1 385.6, 268.6 385.5 Q 268.2 385.4, 267.7 385.4 Q 266.9 385.4, 266.5 385.7 Q 266.2 386.0, 266.2 386.5 Q 266.2 386.9, 266.5 387.1 Q 266.8 387.3, 267.4 387.6 Q 267.6 387.6, 267.8 387.7 L 268.1 387.8 Q 268.8 388.1, 269.2 388.3 Q 269.6 388.5, 269.9 389.0 Q 270.2 389.4, 270.2 390.2 Q 270.2 391.4, 269.4 392.0 Q 268.5 392.6, 267.2 392.6 Q 266.4 392.6, 265.7 392.5 Q 265.1 392.3, 264.4 392.0 L 264.8 390.8 " fill="#000000"/>
<path class="legend" d="M 271.6 388.4 Q 271.6 386.4, 272.6 385.3 Q 273.6 384.1, 275.5 384.1 Q 277.4 384.1, 278.4 385.5 L 277.4 386.2 Q 277.0 385.8, 276.6 385.6 Q 276.1 385.3, 275.5 385.3 Q 274.4 385.3, 273.8 386.1 Q 273.1 386.9, 273.1 388.4 Q 273.1 389.9, 273.8 390.7 Q 274.4 391.4, 275.6 391.4 Q 276.3 391.4, 276.8 391.3 Q 277.2 391.1, 277.8 390.9 L 278.2 391.9 Q 277.1 392.6, 275.5 392.6 Q 273.6 392.6, 272.6 391.5 Q 271.6 390.4, 271.6 388.4 " fill="#000000"/>
<path class="legend" d="M 279.3 390.3 Q 279.3 389.0, 280.4 388.2 Q 281.4 387.5, 283.4 387.5 L 284.6 387.5 L 284.6 387.2 Q 284.6 386.2, 284.2 385.8 Q 283.8 385.3, 282.7 385.3 Q 282.1 385.3, 281.6 385.4 Q 281.0 385.6, 280.2 385.9 L 279.8 384.9 Q 281.3 384.1, 282.8 384.1 Q 284.5 384.1, 285.3 384.9 Q 286.1 385.6, 286.1 387.2 L 286.1 392.5 L 284.9 392.5 Q 284.9 392.4, 284.9 392.2 Q 284.8 391.9, 284.7 391.5 Q 283.6 392.7, 282.0 392.7 Q 280.8 392.7, 280.1 392.0 Q 279.3 391.4, 279.3 390.3 M 280.8 390.2 Q 280.8 390.9, 281.2 391.2 Q 281.6 391.5, 282.3 391.5 Q 283.0 391.5, 283.6 391.2 Q 284.2 390.9, 284.6 390.4 L 284.6 388.6 L 283.5 388.6 Q 282.2 388.6, 281.5 389.0 Q 280.8 389.4, 280.8 390.2 " fill="#000000"/>
<path class="legend" d="M 287.9 385.4 L 287.9 384.3 L 289.3 384.3 L 289.3 383.1 Q 289.3 381.7, 290.1 381.0 Q 290.8 380.3, 292.0 380.3 Q 292.5 380.3, 293.0 380.5 Q 293.4 380.6, 293.9 380.8 L 293.5 381.8 Q 292.7 381.5, 292.1 381.5 Q 291.5 381.5, 291.2 381.9 Q 290.8 382.3, 290.8 383.0 L 290.8 384.3 L 293.4 384.3 L 293.4 385.4 L 290.8 385.4 L 290.8 395.0 L 289.3 395.0 L 289.3 385.4 L 287.9 385.4 " fill="#000000"/>
<path class="legend" d="M 294.1 385.4 L 294.1 384.3 L 295.5 384.3 L 295.5 383.1 Q 295.5 381.7, 296.2 381.0 Q 297.0 380.3, 298.1 380.3 Q 298.7 380.3, 299.1 380.5 Q 299.6 380.6, 300.1 380.8 L 299.7 381.8 Q 298.9 381.5, 298.3 381.5 Q 297.7 381.5, 297.4 381.9 Q 297.0 382.3, 297.0 383.0 L 297.0 384.3 L 299.5 384.3 L 299.5 385.4 L 297.0 385.4 L 297.0 395.0 L 295.5 395.0 L 295.5 385.4 L 294.1 385.4 " fill="#000000"/>
<path class="legend" d="M 300.2 388.4 Q 300.2 386.4, 301.3 385.3 Q 302.3 384.1, 304.1 384.1 Q 306.0 384.1, 307.0 385.3 Q 308.1 386.4, 308.1 388.4 Q 308.1 390.4, 307.0 391.5 Q 306.0 392.6, 304.1 392.6 Q 302.3 392.6, 301.3 391.5 Q 300.2 390.4, 300.2 388.4 M 301.8 388.4 Q 301.8 389.9, 302.4 390.7 Q 303.0 391.4, 304.1 391.4 Q 305.3 391.4, 305.9 390.7 Q 306.5 389.9, 306.5 388.4 Q 306.5 386.9, 305.9 386.1 Q 305.3 385.3, 304.1 385.3 Q 303.0 385.3, 302.4 386.1 Q 301.8 386.9, 301.8 388.4 " fill="#000000"/>
<path class="legend" d="M 309.3 380.4 L 310.8 380.4 L 310.8 392.5 L 309.3 392.5 L 309.3 380.4 " fill="#000000"/>
<path class="legend" d="M 320.2 380.4 L 320.2 392.5 L 319.0 392.5 L 318.8 391.5 Q 317.9 392.6, 316.4 392.6 Q 314.7 392.6, 313.7 391.6 Q 312.8 390.5, 312.8 388.5 Q 312.8 386.5, 313.9 385.3 Q 315.0 384.1, 317.0 384.1 Q 317.8 384.1, 318.7 384.4 L 318.7 380.4 L 320.2 380.4 M 316.5 391.4 Q 317.3 391.4, 317.9 391.0 Q 318.5 390.5, 318.7 389.7 L 318.7 385.6 Q 317.9 385.3, 317.0 385.3 Q 315.7 385.3, 315.0 386.2 Q 314.3 387.0, 314.3 388.5 Q 314.3 389.9, 314.8 390.7 Q 315.4 391.4, 316.5 391.4 " fill="#000000"/>
<path class="legend" d="" fill="#000000"/>
<path class="legend" d="M 332.1 385.4 Q 333.1 385.4, 333.9 385.8 Q 334.7 386.3, 335.2 387.1 Q 335.6 387.8, 335.6 388.9 Q 335.6 390.1, 335.0 390.9 Q 334.5 391.8, 333.6 392.2 Q 332.6 392.6, 331.6 392.6 Q 330.5 392.6, 329.6 392.2 Q 328.6 391.9, 328.0 391.1 L 328.9 390.1 Q 329.4 390.7, 330.2 391.0 Q 330.9 391.3, 331.6 391.3 Q 332.6 391.3, 333.3 390.7 Q 334.0 390.1, 334.0 389.0 Q 334.0 387.8, 333.3 387.2 Q 332.6 386.6, 331.5 386.6 Q 330.5 386.6, 329.4 387.0 L 328.5 386.6 L 329.1 381.2 L 334.9 381.2 L 334.8 382.5 L 330.4 382.5 L 330.1 385.8 Q 331.1 385.4, 332.1 385.4 " fill="#000000"/>
<path class="atom-0" d="M 491.1 283.4 L 493.9 288.0 Q 494.2 288.5, 494.7 289.3 Q 495.1 290.1, 495.1 290.2 L 495.1 283.4 L 496.3 283.4 L 496.3 292.1 L 495.1 292.1 L 492.0 287.1 Q 491.7 286.5, 491.3 285.8 Q 490.9 285.2, 490.8 284.9 L 490.8 292.1 L 489.7 292.1 L 489.7 283.4 L 491.1 283.4 " fill="#0000FF"/>
<path class="atom-0" d="M 498.0 283.4 L 499.1 283.4 L 499.1 287.1 L 503.6 287.1 L 503.6 283.4 L 504.8 283.4 L 504.8 292.1 L 503.6 292.1 L 503.6 288.1 L 499.1 288.1 L 499.1 292.1 L 498.0 292.1 L 498.0 283.4 " fill="#0000FF"/>
<path class="atom-0" d="M 509.2 293.5 Q 509.8 293.6, 510.0 294.0 Q 510.3 294.3, 510.3 294.9 Q 510.3 295.4, 510.1 295.8 Q 509.8 296.2, 509.4 296.4 Q 508.9 296.6, 508.3 296.6 Q 507.7 296.6, 507.3 296.4 Q 506.8 296.1, 506.4 295.7 L 506.9 295.2 Q 507.3 295.6, 507.6 295.8 Q 507.9 295.9, 508.3 295.9 Q 508.9 295.9, 509.2 295.6 Q 509.5 295.4, 509.5 294.9 Q 509.5 294.3, 509.2 294.1 Q 508.8 293.8, 508.1 293.8 L 507.7 293.8 L 507.7 293.2 L 508.1 293.2 Q 508.7 293.2, 509.0 292.9 Q 509.4 292.7, 509.4 292.1 Q 509.4 291.8, 509.1 291.6 Q 508.8 291.3, 508.4 291.3 Q 507.9 291.3, 507.6 291.5 Q 507.3 291.7, 507.1 292.1 L 506.5 291.8 Q 506.7 291.3, 507.2 291.0 Q 507.7 290.7, 508.4 290.7 Q 509.2 290.7, 509.7 291.1 Q 510.2 291.5, 510.2 292.1 Q 510.2 292.6, 509.9 292.9 Q 509.7 293.3, 509.2 293.5 " fill="#0000FF"/>
<path class="legend" d="M 464.7 390.8 Q 465.5 391.1, 466.0 391.3 Q 466.5 391.4, 467.1 391.4 Q 467.8 391.4, 468.2 391.1 Q 468.6 390.8, 468.6 390.2 Q 468.6 389.8, 468.4 389.6 Q 468.2 389.4, 467.9 389.3 Q 467.6 389.1, 466.9 388.9 Q 466.8 388.9, 466.1 388.6 Q 465.3 388.4, 464.9 387.8 Q 464.5 387.3, 464.5 386.5 Q 464.5 385.5, 465.3 384.8 Q 466.1 384.1, 467.6 384.1 Q 468.2 384.1, 468.7 384.3 Q 469.3 384.4, 469.9 384.7 L 469.5 385.8 Q 469.0 385.6, 468.5 385.5 Q 468.1 385.4, 467.6 385.4 Q 466.8 385.4, 466.4 385.7 Q 466.1 386.0, 466.1 386.5 Q 466.1 386.9, 466.4 387.1 Q 466.7 387.3, 467.3 387.6 Q 467.5 387.6, 467.7 387.7 L 468.0 387.8 Q 468.7 388.1, 469.1 388.3 Q 469.5 388.5, 469.8 389.0 Q 470.1 389.4, 470.1 390.2 Q 470.1 391.4, 469.3 392.0 Q 468.4 392.6, 467.1 392.6 Q 466.3 392.6, 465.6 392.5 Q 464.9 392.3, 464.3 392.0 L 464.7 390.8 " fill="#000000"/>
<path class="legend" d="M 471.5 388.4 Q 471.5 386.4, 472.5 385.3 Q 473.5 384.1, 475.4 384.1 Q 477.3 384.1, 478.3 385.5 L 477.3 386.2 Q 476.9 385.8, 476.5 385.6 Q 476.0 385.3, 475.4 385.3 Q 474.3 385.3, 473.7 386.1 Q 473.0 386.9, 473.0 388.4 Q 473.0 389.9, 473.7 390.7 Q 474.3 391.4, 475.5 391.4 Q 476.2 391.4, 476.7 391.3 Q 477.1 391.1, 477.7 390.9 L 478.1 391.9 Q 476.9 392.6, 475.4 392.6 Q 473.5 392.6, 472.5 391.5 Q 471.5 390.4, 471.5 388.4 " fill="#000000"/>
<path class="legend" d="M 479.2 390.3 Q 479.2 389.0, 480.3 388.2 Q 481.3 387.5, 483.3 387.5 L 484.5 387.5 L 484.5 387.2 Q 484.5 386.2, 484.1 385.8 Q 483.7 385.3, 482.6 385.3 Q 482.0 385.3, 481.5 385.4 Q 480.9 385.6, 480.1 385.9 L 479.7 384.9 Q 481.2 384.1, 482.7 384.1 Q 484.4 384.1, 485.2 384.9 Q 486.0 385.6, 486.0 387.2 L 486.0 392.5 L 484.8 392.5 Q 484.8 392.4, 484.8 392.2 Q 484.7 391.9, 484.6 391.5 Q 483.5 392.7, 481.9 392.7 Q 480.7 392.7, 480.0 392.0 Q 479.2 391.4, 479.2 390.3 M 480.7 390.2 Q 480.7 390.9, 481.1 391.2 Q 481.5 391.5, 482.2 391.5 Q 482.9 391.5, 483.5 391.2 Q 484.1 390.9, 484.5 390.4 L 484.5 388.6 L 483.4 388.6 Q 482.1 388.6, 481.4 389.0 Q 480.7 389.4, 480.7 390.2 " fill="#000000"/>
<path class="legend" d="M 487.8 385.4 L 487.8 384.3 L 489.2 384.3 L 489.2 383.1 Q 489.2 381.7, 490.0 381.0 Q 490.7 380.3, 491.9 380.3 Q 492.4 380.3, 492.9 380.5 Q 493.3 380.6, 493.8 380.8 L 493.4 381.8 Q 492.6 381.5, 492.0 381.5 Q 491.4 381.5, 491.1 381.9 Q 490.7 382.3, 490.7 383.0 L 490.7 384.3 L 493.3 384.3 L 493.3 385.4 L 490.7 385.4 L 490.7 395.0 L 489.2 395.0 L 489.2 385.4 L 487.8 385.4 " fill="#000000"/>
<path class="legend" d="M 494.0 385.4 L 494.0 384.3 L 495.4 384.3 L 495.4 383.1 Q 495.4 381.7, 496.1 381.0 Q 496.9 380.3, 498.0 380.3 Q 498.6 380.3, 499.0 380.5 Q 499.5 380.6, 500.0 380.8 L 499.6 381.8 Q 498.8 381.5, 498.2 381.5 Q 497.6 381.5, 497.3 381.9 Q 496.9 382.3, 496.9 383.0 L 496.9 384.3 L 499.4 384.3 L 499.4 385.4 L 496.9 385.4 L 496.9 395.0 L 495.4 395.0 L 495.4 385.4 L 494.0 385.4 " fill="#000000"/>
<path class="legend" d="M 500.1 388.4 Q 500.1 386.4, 501.2 385.3 Q 502.2 384.1, 504.1 384.1 Q 505.9 384.1, 506.9 385.3 Q 508.0 386.4, 508.0 388.4 Q 508.0 390.4, 506.9 391.5 Q 505.9 392.6, 504.1 392.6 Q 502.2 392.6, 501.2 391.5 Q 500.1 390.4, 500.1 388.4 M 501.7 388.4 Q 501.7 389.9, 502.3 390.7 Q 502.9 391.4, 504.1 391.4 Q 505.2 391.4, 505.8 390.7 Q 506.4 389.9, 506.4 388.4 Q 506.4 386.9, 505.8 386.1 Q 505.2 385.3, 504.1 385.3 Q 502.9 385.3, 502.3 386.1 Q 501.7 386.9, 501.7 388.4 " fill="#000000"/>
<path class="legend" d="M 509.3 380.4 L 510.7 380.4 L 510.7 392.5 L 509.3 392.5 L 509.3 380.4 " fill="#000000"/>
<path class="legend" d="M 520.1 380.4 L 520.1 392.5 L 518.9 392.5 L 518.7 391.5 Q 517.8 392.6, 516.3 392.6 Q 514.6 392.6, 513.6 391.6 Q 512.7 390.5, 512.7 388.5 Q 512.7 386.5, 513.8 385.3 Q 514.9 384.1, 516.9 384.1 Q 517.7 384.1, 518.6 384.4 L 518.6 380.4 L 520.1 380.4 M 516.4 391.4 Q 517.2 391.4, 517.8 391.0 Q 518.4 390.5, 518.6 389.7 L 518.6 385.6 Q 517.8 385.3, 516.9 385.3 Q 515.6 385.3, 514.9 386.2 Q 514.2 387.0, 514.2 388.5 Q 514.2 389.9, 514.8 390.7 Q 515.3 391.4, 516.4 391.4 " fill="#000000"/>
<path class="legend" d="" fill="#000000"/>
<path class="legend" d="M 532.3 385.4 Q 533.3 385.4, 534.1 385.9 Q 534.9 386.3, 535.3 387.1 Q 535.7 387.9, 535.7 388.9 Q 535.7 390.0, 535.2 390.8 Q 534.7 391.7, 533.9 392.2 Q 533.0 392.6, 531.9 392.6 Q 529.9 392.6, 528.9 391.3 Q 527.9 389.9, 527.9 387.2 Q 527.9 384.2, 529.1 382.6 Q 530.4 381.0, 532.8 381.0 Q 533.5 381.0, 534.1 381.2 Q 534.7 381.4, 535.3 381.7 L 534.7 382.8 Q 533.8 382.3, 532.8 382.3 Q 531.2 382.3, 530.4 383.4 Q 529.6 384.4, 529.5 386.5 Q 530.1 386.0, 530.8 385.7 Q 531.5 385.4, 532.3 385.4 M 531.9 391.3 Q 532.5 391.3, 533.0 391.0 Q 533.5 390.7, 533.8 390.1 Q 534.1 389.6, 534.1 388.9 Q 534.1 387.9, 533.6 387.3 Q 533.0 386.7, 532.0 386.7 Q 531.3 386.7, 530.6 387.0 Q 530.0 387.3, 529.5 387.8 Q 529.5 389.6, 530.1 390.5 Q 530.7 391.3, 531.9 391.3 " fill="#000000"/>
</svg>