<svg xmlns="http://www.w3.org/2000/svg" xmlns:rdkit="http://www.rdkit.org/xml" xmlns:xlink="http://www.w3.org/1999/xlink" version="1.1" baseProfile="full" xml:space="preserve" width="600px" height="200px" viewBox="0 0 600 200">
<!-- END OF HEADER -->
<rect style="opacity:1.0;fill:#FFFFFF;stroke:none" width="600.0" height="200.0" x="0.0" y="0.0"> </rect>
<path class="bond-0 atom-0 atom-1" d="M 41.9,124.4 L 85.7,99.1" style="fill:none;fill-rule:evenodd;stroke:#000000;stroke-width:2.0px;stroke-linecap:butt;stroke-linejoin:miter;stroke-opacity:1"/>
<path class="bond-1 atom-1 atom-2" d="M 85.7,99.1 L 104.1,109.7" style="fill:none;fill-rule:evenodd;stroke:#000000;stroke-width:2.0px;stroke-linecap:butt;stroke-linejoin:miter;stroke-opacity:1"/>
<path class="bond-1 atom-1 atom-2" d="M 104.1,109.7 L 122.5,120.3" style="fill:none;fill-rule:evenodd;stroke:#0000FF;stroke-width:2.0px;stroke-linecap:butt;stroke-linejoin:miter;stroke-opacity:1"/>
<path class="bond-2 atom-1 atom-3" d="M 89.5,101.3 L 89.5,79.5" style="fill:none;fill-rule:evenodd;stroke:#000000;stroke-width:2.0px;stroke-linecap:butt;stroke-linejoin:miter;stroke-opacity:1"/>
<path class="bond-2 atom-1 atom-3" d="M 89.5,79.5 L 89.5,57.6" style="fill:none;fill-rule:evenodd;stroke:#FF0000;stroke-width:2.0px;stroke-linecap:butt;stroke-linejoin:miter;stroke-opacity:1"/>
<path class="bond-2 atom-1 atom-3" d="M 81.9,101.3 L 81.9,79.5" style="fill:none;fill-rule:evenodd;stroke:#000000;stroke-width:2.0px;stroke-linecap:butt;stroke-linejoin:miter;stroke-opacity:1"/>
<path class="bond-2 atom-1 atom-3" d="M 81.9,79.5 L 81.9,57.6" style="fill:none;fill-rule:evenodd;stroke:#FF0000;stroke-width:2.0px;stroke-linecap:butt;stroke-linejoin:miter;stroke-opacity:1"/>
<path d="M 83.5,100.4 L 85.7,99.1 L 86.6,99.6" style="fill:none;stroke:#000000;stroke-width:2.0px;stroke-linecap:butt;stroke-linejoin:miter;stroke-opacity:1;"/>
<path class="atom-2" d="M 126.4 117.3 L 131.1 124.9 Q 131.6 125.6, 132.3 127.0 Q 133.1 128.3, 133.1 128.4 L 133.1 117.3 L 135.0 117.3 L 135.0 131.6 L 133.0 131.6 L 128.0 123.3 Q 127.4 122.3, 126.8 121.2 Q 126.2 120.1, 126.0 119.8 L 126.0 131.6 L 124.1 131.6 L 124.1 117.3 L 126.4 117.3 " fill="#0000FF"/>
<path class="atom-2" d="M 137.8 117.3 L 139.7 117.3 L 139.7 123.4 L 147.0 123.4 L 147.0 117.3 L 149.0 117.3 L 149.0 131.6 L 147.0 131.6 L 147.0 125.0 L 139.7 125.0 L 139.7 131.6 L 137.8 131.6 L 137.8 117.3 " fill="#0000FF"/>
<path class="atom-2" d="M 151.8 131.1 Q 152.1 130.2, 153.0 129.7 Q 153.8 129.2, 154.9 129.2 Q 156.4 129.2, 157.2 130.0 Q 158.0 130.8, 158.0 132.1 Q 158.0 133.5, 156.9 134.8 Q 155.9 136.2, 153.8 137.7 L 158.1 137.7 L 158.1 138.8 L 151.8 138.8 L 151.8 137.9 Q 153.5 136.6, 154.6 135.7 Q 155.6 134.8, 156.1 133.9 Q 156.6 133.1, 156.6 132.2 Q 156.6 131.3, 156.2 130.8 Q 155.7 130.3, 154.9 130.3 Q 154.2 130.3, 153.7 130.6 Q 153.2 130.9, 152.8 131.6 L 151.8 131.1 " fill="#0000FF"/>
<path class="atom-3" d="M 79.1 48.5 Q 79.1 45.1, 80.8 43.1 Q 82.5 41.2, 85.7 41.2 Q 88.9 41.2, 90.6 43.1 Q 92.3 45.1, 92.3 48.5 Q 92.3 52.0, 90.6 54.0 Q 88.9 56.0, 85.7 56.0 Q 82.6 56.0, 80.8 54.0 Q 79.1 52.0, 79.1 48.5 M 85.7 54.3 Q 87.9 54.3, 89.1 52.9 Q 90.3 51.4, 90.3 48.5 Q 90.3 45.7, 89.1 44.3 Q 87.9 42.8, 85.7 42.8 Q 83.5 42.8, 82.3 44.3 Q 81.2 45.7, 81.2 48.5 Q 81.2 51.4, 82.3 52.9 Q 83.5 54.3, 85.7 54.3 " fill="#FF0000"/>
<path class="legend" d="M 78.4 192.6 Q 78.4 191.3, 79.4 190.6 Q 80.5 189.8, 82.4 189.8 L 83.6 189.8 L 83.6 189.5 Q 83.6 188.5, 83.2 188.1 Q 82.8 187.6, 81.8 187.6 Q 81.1 187.6, 80.6 187.8 Q 80.1 187.9, 79.3 188.2 L 78.8 187.2 Q 80.3 186.4, 81.8 186.4 Q 83.5 186.4, 84.3 187.2 Q 85.1 187.9, 85.1 189.5 L 85.1 194.8 L 84.0 194.8 Q 84.0 194.7, 83.9 194.5 Q 83.9 194.2, 83.8 193.8 Q 82.6 195.0, 81.1 195.0 Q 79.9 195.0, 79.1 194.3 Q 78.4 193.7, 78.4 192.6 M 79.9 192.6 Q 79.9 193.2, 80.3 193.5 Q 80.7 193.8, 81.4 193.8 Q 82.0 193.8, 82.6 193.5 Q 83.2 193.2, 83.6 192.7 L 83.6 191.0 L 82.5 191.0 Q 81.2 191.0, 80.5 191.4 Q 79.9 191.8, 79.9 192.6 " fill="#000000"/>
<path class="legend" d="M 96.6 186.4 Q 98.0 186.4, 98.7 187.2 Q 99.4 187.9, 99.4 189.4 L 99.4 194.8 L 97.9 194.8 L 97.9 189.5 Q 97.9 188.5, 97.5 188.1 Q 97.1 187.6, 96.3 187.6 Q 95.6 187.6, 95.0 188.0 Q 94.4 188.3, 94.0 188.9 Q 94.0 189.1, 94.0 189.4 L 94.0 194.8 L 92.5 194.8 L 92.5 189.5 Q 92.5 188.5, 92.1 188.1 Q 91.7 187.6, 90.9 187.6 Q 90.2 187.6, 89.6 188.0 Q 89.0 188.3, 88.6 188.9 L 88.6 194.8 L 87.1 194.8 L 87.1 186.6 L 88.3 186.6 L 88.5 187.7 Q 89.6 186.4, 91.2 186.4 Q 93.1 186.4, 93.7 187.9 Q 94.8 186.4, 96.6 186.4 " fill="#000000"/>
<path class="legend" d="M 101.3 183.5 L 102.8 183.5 L 102.8 184.9 L 101.3 184.9 L 101.3 183.5 M 101.3 186.6 L 102.8 186.6 L 102.8 194.8 L 101.3 194.8 L 101.3 186.6 " fill="#000000"/>
<path class="legend" d="M 112.4 182.7 L 112.4 194.8 L 111.1 194.8 L 110.9 193.8 Q 110.0 194.9, 108.5 194.9 Q 106.8 194.9, 105.8 193.9 Q 104.9 192.8, 104.9 190.8 Q 104.9 188.8, 106.0 187.6 Q 107.1 186.4, 109.1 186.4 Q 110.0 186.4, 110.8 186.7 L 110.8 182.7 L 112.4 182.7 M 108.6 193.8 Q 109.4 193.8, 110.0 193.3 Q 110.6 192.8, 110.8 192.0 L 110.8 187.9 Q 110.0 187.6, 109.1 187.6 Q 107.9 187.6, 107.1 188.5 Q 106.4 189.3, 106.4 190.8 Q 106.4 192.2, 107.0 193.0 Q 107.6 193.8, 108.6 193.8 " fill="#000000"/>
<path class="legend" d="M 114.3 190.7 Q 114.3 188.7, 115.3 187.6 Q 116.4 186.4, 118.2 186.4 Q 120.0 186.4, 120.8 187.5 Q 121.6 188.6, 121.6 190.6 L 121.6 190.9 L 115.9 190.9 Q 115.9 192.3, 116.5 193.0 Q 117.2 193.8, 118.3 193.8 Q 119.0 193.8, 119.6 193.6 Q 120.1 193.4, 120.9 193.1 L 121.3 194.2 Q 120.5 194.6, 119.7 194.8 Q 119.0 194.9, 118.2 194.9 Q 116.4 194.9, 115.4 193.8 Q 114.3 192.7, 114.3 190.7 M 118.2 187.6 Q 117.3 187.6, 116.7 188.2 Q 116.1 188.7, 115.9 189.8 L 120.0 189.8 Q 119.9 188.7, 119.5 188.2 Q 119.0 187.6, 118.2 187.6 " fill="#000000"/>
<path class="bond-0 atom-0 atom-1" d="M 377.8,73.5 L 357.6,83.7" style="fill:none;fill-rule:evenodd;stroke:#FF0000;stroke-width:2.0px;stroke-linecap:butt;stroke-linejoin:miter;stroke-opacity:1"/>
<path class="bond-0 atom-0 atom-1" d="M 357.6,83.7 L 337.5,93.9" style="fill:none;fill-rule:evenodd;stroke:#000000;stroke-width:2.0px;stroke-linecap:butt;stroke-linejoin:miter;stroke-opacity:1"/>
<path class="bond-0 atom-0 atom-1" d="M 374.4,66.7 L 354.2,76.9" style="fill:none;fill-rule:evenodd;stroke:#FF0000;stroke-width:2.0px;stroke-linecap:butt;stroke-linejoin:miter;stroke-opacity:1"/>
<path class="bond-0 atom-0 atom-1" d="M 354.2,76.9 L 334.0,87.1" style="fill:none;fill-rule:evenodd;stroke:#000000;stroke-width:2.0px;stroke-linecap:butt;stroke-linejoin:miter;stroke-opacity:1"/>
<path class="bond-1 atom-1 atom-2" d="M 339.1,88.8 L 323.4,136.9" style="fill:none;fill-rule:evenodd;stroke:#000000;stroke-width:2.0px;stroke-linecap:butt;stroke-linejoin:miter;stroke-opacity:1"/>
<path class="bond-2 atom-2 atom-3" d="M 323.4,136.9 L 275.2,121.1" style="fill:none;fill-rule:evenodd;stroke:#000000;stroke-width:2.0px;stroke-linecap:butt;stroke-linejoin:miter;stroke-opacity:1"/>
<path class="bond-3 atom-3 atom-4" d="M 275.2,121.1 L 253.1,121.0" style="fill:none;fill-rule:evenodd;stroke:#000000;stroke-width:2.0px;stroke-linecap:butt;stroke-linejoin:miter;stroke-opacity:1"/>
<path class="bond-3 atom-3 atom-4" d="M 253.1,121.0 L 230.9,121.0" style="fill:none;fill-rule:evenodd;stroke:#CCCC00;stroke-width:2.0px;stroke-linecap:butt;stroke-linejoin:miter;stroke-opacity:1"/>
<path class="bond-4 atom-4 atom-5" d="M 221.8,112.1 L 215.4,92.5" style="fill:none;fill-rule:evenodd;stroke:#CCCC00;stroke-width:2.0px;stroke-linecap:butt;stroke-linejoin:miter;stroke-opacity:1"/>
<path class="bond-4 atom-4 atom-5" d="M 215.4,92.5 L 209.1,72.8" style="fill:none;fill-rule:evenodd;stroke:#000000;stroke-width:2.0px;stroke-linecap:butt;stroke-linejoin:miter;stroke-opacity:1"/>
<path class="bond-5 atom-5 atom-6" d="M 209.1,72.8 L 250.1,43.1" style="fill:none;fill-rule:evenodd;stroke:#000000;stroke-width:2.0px;stroke-linecap:butt;stroke-linejoin:miter;stroke-opacity:1"/>
<path class="bond-6 atom-6 atom-7" d="M 250.1,43.1 L 267.0,55.5" style="fill:none;fill-rule:evenodd;stroke:#000000;stroke-width:2.0px;stroke-linecap:butt;stroke-linejoin:miter;stroke-opacity:1"/>
<path class="bond-6 atom-6 atom-7" d="M 267.0,55.5 L 283.9,67.8" style="fill:none;fill-rule:evenodd;stroke:#0000FF;stroke-width:2.0px;stroke-linecap:butt;stroke-linejoin:miter;stroke-opacity:1"/>
<path class="bond-7 atom-7 atom-1" d="M 298.1,75.3 L 318.6,82.0" style="fill:none;fill-rule:evenodd;stroke:#0000FF;stroke-width:2.0px;stroke-linecap:butt;stroke-linejoin:miter;stroke-opacity:1"/>
<path class="bond-7 atom-7 atom-1" d="M 318.6,82.0 L 339.1,88.8" style="fill:none;fill-rule:evenodd;stroke:#000000;stroke-width:2.0px;stroke-linecap:butt;stroke-linejoin:miter;stroke-opacity:1"/>
<path class="bond-8 atom-7 atom-3" d="M 288.1,81.8 L 281.7,101.5" style="fill:none;fill-rule:evenodd;stroke:#0000FF;stroke-width:2.0px;stroke-linecap:butt;stroke-linejoin:miter;stroke-opacity:1"/>
<path class="bond-8 atom-7 atom-3" d="M 281.7,101.5 L 275.2,121.1" style="fill:none;fill-rule:evenodd;stroke:#000000;stroke-width:2.0px;stroke-linecap:butt;stroke-linejoin:miter;stroke-opacity:1"/>
<path d="M 338.4,91.2 L 339.1,88.8 L 338.1,88.4" style="fill:none;stroke:#000000;stroke-width:2.0px;stroke-linecap:butt;stroke-linejoin:miter;stroke-opacity:1;"/>
<path d="M 324.2,134.5 L 323.4,136.9 L 321.0,136.1" style="fill:none;stroke:#000000;stroke-width:2.0px;stroke-linecap:butt;stroke-linejoin:miter;stroke-opacity:1;"/>
<path d="M 209.4,73.7 L 209.1,72.8 L 211.1,71.3" style="fill:none;stroke:#000000;stroke-width:2.0px;stroke-linecap:butt;stroke-linejoin:miter;stroke-opacity:1;"/>
<path d="M 248.1,44.6 L 250.1,43.1 L 251.0,43.7" style="fill:none;stroke:#000000;stroke-width:2.0px;stroke-linecap:butt;stroke-linejoin:miter;stroke-opacity:1;"/>
<path class="atom-0" d="M 377.7 65.9 Q 377.7 62.5, 379.4 60.6 Q 381.1 58.7, 384.3 58.7 Q 387.5 58.7, 389.2 60.6 Q 390.9 62.5, 390.9 65.9 Q 390.9 69.4, 389.2 71.4 Q 387.5 73.4, 384.3 73.4 Q 381.2 73.4, 379.4 71.4 Q 377.7 69.4, 377.7 65.9 M 384.3 71.8 Q 386.5 71.8, 387.7 70.3 Q 388.9 68.8, 388.9 65.9 Q 388.9 63.1, 387.7 61.7 Q 386.5 60.3, 384.3 60.3 Q 382.1 60.3, 380.9 61.7 Q 379.8 63.1, 379.8 65.9 Q 379.8 68.8, 380.9 70.3 Q 382.1 71.8, 384.3 71.8 " fill="#FF0000"/>
<path class="atom-4" d="M 220.6 125.9 Q 220.7 126.0, 221.4 126.2 Q 222.1 126.5, 222.8 126.7 Q 223.5 126.9, 224.3 126.9 Q 225.6 126.9, 226.4 126.2 Q 227.2 125.5, 227.2 124.4 Q 227.2 123.6, 226.8 123.1 Q 226.4 122.6, 225.8 122.4 Q 225.2 122.1, 224.2 121.8 Q 222.9 121.4, 222.1 121.0 Q 221.4 120.7, 220.8 119.9 Q 220.3 119.1, 220.3 117.8 Q 220.3 116.0, 221.5 114.9 Q 222.8 113.8, 225.2 113.8 Q 226.9 113.8, 228.7 114.6 L 228.3 116.2 Q 226.6 115.5, 225.3 115.5 Q 223.9 115.5, 223.1 116.0 Q 222.3 116.6, 222.3 117.6 Q 222.3 118.4, 222.7 118.8 Q 223.1 119.3, 223.7 119.6 Q 224.3 119.8, 225.3 120.1 Q 226.6 120.5, 227.3 120.9 Q 228.1 121.4, 228.6 122.2 Q 229.2 123.0, 229.2 124.4 Q 229.2 126.4, 227.9 127.5 Q 226.6 128.5, 224.3 128.5 Q 223.1 128.5, 222.1 128.2 Q 221.1 128.0, 220.0 127.5 L 220.6 125.9 " fill="#CCCC00"/>
<path class="atom-7" d="M 287.9 65.8 L 292.6 73.4 Q 293.0 74.2, 293.8 75.5 Q 294.5 76.9, 294.6 77.0 L 294.6 65.8 L 296.5 65.8 L 296.5 80.2 L 294.5 80.2 L 289.5 71.9 Q 288.9 70.9, 288.2 69.8 Q 287.6 68.7, 287.5 68.3 L 287.5 80.2 L 285.6 80.2 L 285.6 65.8 L 287.9 65.8 " fill="#0000FF"/>
<path class="legend" d="M 277.2 183.5 Q 278.8 183.5, 279.7 184.5 Q 280.6 185.5, 280.6 187.4 Q 280.6 189.3, 279.5 190.4 Q 278.4 191.5, 276.6 191.5 Q 275.7 191.5, 275.0 191.2 L 275.0 195.0 L 273.6 195.0 L 273.6 183.7 L 274.7 183.7 L 274.9 184.6 Q 275.3 184.1, 275.9 183.8 Q 276.5 183.5, 277.2 183.5 M 276.6 190.4 Q 277.8 190.4, 278.4 189.6 Q 279.1 188.8, 279.1 187.4 Q 279.1 186.1, 278.6 185.3 Q 278.1 184.6, 277.1 184.6 Q 276.3 184.6, 275.8 185.0 Q 275.2 185.4, 275.0 186.2 L 275.0 190.1 Q 275.8 190.4, 276.6 190.4 " fill="#000000"/>
<path class="legend" d="M 281.6 187.5 Q 281.6 185.6, 282.6 184.6 Q 283.5 183.5, 285.2 183.5 Q 286.9 183.5, 287.7 184.5 Q 288.4 185.5, 288.4 187.4 L 288.4 187.7 L 283.1 187.7 Q 283.1 189.0, 283.7 189.7 Q 284.3 190.4, 285.3 190.4 Q 285.9 190.4, 286.5 190.2 Q 287.1 190.1, 287.7 189.8 L 288.1 190.7 Q 287.4 191.1, 286.7 191.3 Q 286.0 191.5, 285.3 191.5 Q 283.5 191.5, 282.6 190.4 Q 281.6 189.4, 281.6 187.5 M 285.2 184.6 Q 284.3 184.6, 283.8 185.1 Q 283.3 185.6, 283.1 186.6 L 286.9 186.6 Q 286.8 185.6, 286.4 185.1 Q 286.0 184.6, 285.2 184.6 " fill="#000000"/>
<path class="legend" d="M 293.4 183.5 Q 294.6 183.5, 295.3 184.2 Q 295.9 184.9, 295.9 186.3 L 295.9 191.3 L 294.5 191.3 L 294.5 186.4 Q 294.5 185.5, 294.2 185.0 Q 293.8 184.6, 293.0 184.6 Q 292.3 184.6, 291.8 185.0 Q 291.2 185.3, 290.8 185.8 L 290.8 191.3 L 289.4 191.3 L 289.4 183.7 L 290.5 183.7 L 290.7 184.7 Q 291.7 183.5, 293.4 183.5 " fill="#000000"/>
<path class="legend" d="M 297.5 180.8 L 298.8 180.8 L 298.8 182.1 L 297.5 182.1 L 297.5 180.8 M 297.5 183.7 L 298.8 183.7 L 298.8 191.3 L 297.5 191.3 L 297.5 183.7 " fill="#000000"/>
<path class="legend" d="M 300.5 187.5 Q 300.5 185.6, 301.5 184.6 Q 302.4 183.5, 304.2 183.5 Q 306.0 183.5, 306.9 184.8 L 305.9 185.5 Q 305.6 185.1, 305.1 184.9 Q 304.7 184.6, 304.2 184.6 Q 303.1 184.6, 302.5 185.4 Q 302.0 186.1, 302.0 187.5 Q 302.0 188.9, 302.6 189.6 Q 303.2 190.4, 304.3 190.4 Q 304.9 190.4, 305.4 190.2 Q 305.8 190.1, 306.3 189.8 L 306.7 190.8 Q 305.6 191.4, 304.2 191.4 Q 302.4 191.4, 301.5 190.4 Q 300.5 189.3, 300.5 187.5 " fill="#000000"/>
<path class="legend" d="M 307.6 180.8 L 309.0 180.8 L 309.0 182.1 L 307.6 182.1 L 307.6 180.8 M 307.6 183.7 L 309.0 183.7 L 309.0 191.3 L 307.6 191.3 L 307.6 183.7 " fill="#000000"/>
<path class="legend" d="M 310.7 180.0 L 312.1 180.0 L 312.1 191.3 L 310.7 191.3 L 310.7 180.0 " fill="#000000"/>
<path class="legend" d="M 313.7 180.0 L 315.1 180.0 L 315.1 191.3 L 313.7 191.3 L 313.7 180.0 " fill="#000000"/>
<path class="legend" d="M 316.8 180.8 L 318.2 180.8 L 318.2 182.1 L 316.8 182.1 L 316.8 180.8 M 316.8 183.7 L 318.2 183.7 L 318.2 191.3 L 316.8 191.3 L 316.8 183.7 " fill="#000000"/>
<path class="legend" d="M 323.9 183.5 Q 325.1 183.5, 325.7 184.2 Q 326.4 184.9, 326.4 186.3 L 326.4 191.3 L 325.0 191.3 L 325.0 186.4 Q 325.0 185.5, 324.6 185.0 Q 324.3 184.6, 323.5 184.6 Q 322.8 184.6, 322.2 185.0 Q 321.6 185.3, 321.3 185.8 L 321.3 191.3 L 319.9 191.3 L 319.9 183.7 L 321.0 183.7 L 321.2 184.7 Q 322.2 183.5, 323.9 183.5 " fill="#000000"/>
<path class="bond-0 atom-0 atom-1" d="M 548.0,89.8 L 528.2,81.4" style="fill:none;fill-rule:evenodd;stroke:#0000FF;stroke-width:2.0px;stroke-linecap:butt;stroke-linejoin:miter;stroke-opacity:1"/>
<path class="bond-0 atom-0 atom-1" d="M 528.2,81.4 L 508.5,73.0" style="fill:none;fill-rule:evenodd;stroke:#000000;stroke-width:2.0px;stroke-linecap:butt;stroke-linejoin:miter;stroke-opacity:1"/>
<path class="bond-1 atom-1 atom-2" d="M 508.5,73.0 L 468.0,103.4" style="fill:none;fill-rule:evenodd;stroke:#000000;stroke-width:2.0px;stroke-linecap:butt;stroke-linejoin:miter;stroke-opacity:1"/>
<path class="bond-2 atom-2 atom-3" d="M 468.0,103.4 L 448.9,95.3" style="fill:none;fill-rule:evenodd;stroke:#000000;stroke-width:2.0px;stroke-linecap:butt;stroke-linejoin:miter;stroke-opacity:1"/>
<path class="bond-2 atom-2 atom-3" d="M 448.9,95.3 L 429.7,87.1" style="fill:none;fill-rule:evenodd;stroke:#FF0000;stroke-width:2.0px;stroke-linecap:butt;stroke-linejoin:miter;stroke-opacity:1"/>
<path class="bond-2 atom-2 atom-3" d="M 467.0,94.7 L 451.8,88.3" style="fill:none;fill-rule:evenodd;stroke:#000000;stroke-width:2.0px;stroke-linecap:butt;stroke-linejoin:miter;stroke-opacity:1"/>
<path class="bond-2 atom-2 atom-3" d="M 451.8,88.3 L 432.7,80.1" style="fill:none;fill-rule:evenodd;stroke:#FF0000;stroke-width:2.0px;stroke-linecap:butt;stroke-linejoin:miter;stroke-opacity:1"/>
<path d="M 509.5,73.4 L 508.5,73.0 L 506.5,74.5" style="fill:none;stroke:#000000;stroke-width:2.0px;stroke-linecap:butt;stroke-linejoin:miter;stroke-opacity:1;"/>
<path d="M 470.1,101.9 L 468.0,103.4 L 467.1,103.0" style="fill:none;stroke:#000000;stroke-width:2.0px;stroke-linecap:butt;stroke-linejoin:miter;stroke-opacity:1;"/>
<path class="atom-0" d="M 551.9 85.6 L 556.6 93.2 Q 557.1 94.0, 557.8 95.3 Q 558.6 96.7, 558.6 96.8 L 558.6 85.6 L 560.5 85.6 L 560.5 100.0 L 558.6 100.0 L 553.5 91.7 Q 552.9 90.7, 552.3 89.6 Q 551.7 88.5, 551.5 88.1 L 551.5 100.0 L 549.7 100.0 L 549.7 85.6 L 551.9 85.6 " fill="#0000FF"/>
<path class="atom-0" d="M 563.3 85.6 L 565.2 85.6 L 565.2 91.7 L 572.6 91.7 L 572.6 85.6 L 574.5 85.6 L 574.5 100.0 L 572.6 100.0 L 572.6 93.4 L 565.2 93.4 L 565.2 100.0 L 563.3 100.0 L 563.3 85.6 " fill="#0000FF"/>
<path class="atom-0" d="M 577.3 99.5 Q 577.7 98.6, 578.5 98.1 Q 579.3 97.6, 580.5 97.6 Q 581.9 97.6, 582.7 98.4 Q 583.5 99.1, 583.5 100.5 Q 583.5 101.9, 582.5 103.2 Q 581.4 104.5, 579.3 106.1 L 583.7 106.1 L 583.7 107.2 L 577.3 107.2 L 577.3 106.3 Q 579.0 105.0, 580.1 104.1 Q 581.1 103.1, 581.7 102.3 Q 582.2 101.4, 582.2 100.6 Q 582.2 99.7, 581.7 99.2 Q 581.3 98.6, 580.5 98.6 Q 579.7 98.6, 579.2 99.0 Q 578.7 99.3, 578.3 99.9 L 577.3 99.5 " fill="#0000FF"/>
<path class="atom-3" d="M 416.3 80.1 Q 416.3 76.7, 418.0 74.8 Q 419.7 72.8, 422.9 72.8 Q 426.1 72.8, 427.8 74.8 Q 429.5 76.7, 429.5 80.1 Q 429.5 83.6, 427.8 85.6 Q 426.1 87.6, 422.9 87.6 Q 419.8 87.6, 418.0 85.6 Q 416.3 83.6, 416.3 80.1 M 422.9 86.0 Q 425.1 86.0, 426.3 84.5 Q 427.5 83.0, 427.5 80.1 Q 427.5 77.3, 426.3 75.9 Q 425.1 74.5, 422.9 74.5 Q 420.7 74.5, 419.5 75.9 Q 418.4 77.3, 418.4 80.1 Q 418.4 83.0, 419.5 84.5 Q 420.7 86.0, 422.9 86.0 " fill="#FF0000"/>
<path class="legend" d="M 478.9 183.5 Q 480.5 183.5, 481.4 184.5 Q 482.3 185.5, 482.3 187.4 Q 482.3 189.3, 481.2 190.4 Q 480.2 191.5, 478.3 191.5 Q 477.5 191.5, 476.7 191.2 L 476.7 195.0 L 475.3 195.0 L 475.3 183.7 L 476.5 183.7 L 476.6 184.6 Q 477.0 184.1, 477.6 183.8 Q 478.2 183.5, 478.9 183.5 M 478.3 190.4 Q 479.5 190.4, 480.2 189.6 Q 480.8 188.8, 480.8 187.4 Q 480.8 186.1, 480.3 185.3 Q 479.8 184.6, 478.8 184.6 Q 478.0 184.6, 477.5 185.0 Q 477.0 185.4, 476.7 186.2 L 476.7 190.1 Q 477.5 190.4, 478.3 190.4 " fill="#000000"/>
<path class="legend" d="M 483.5 187.5 Q 483.5 185.6, 484.5 184.6 Q 485.4 183.5, 487.1 183.5 Q 488.8 183.5, 489.6 184.5 Q 490.3 185.5, 490.3 187.4 L 490.3 187.7 L 485.0 187.7 Q 485.0 189.0, 485.6 189.7 Q 486.2 190.4, 487.3 190.4 Q 487.9 190.4, 488.4 190.2 Q 489.0 190.1, 489.6 189.8 L 490.0 190.7 Q 489.3 191.1, 488.6 191.3 Q 487.9 191.5, 487.2 191.5 Q 485.4 191.5, 484.5 190.4 Q 483.5 189.4, 483.5 187.5 M 487.1 184.6 Q 486.3 184.6, 485.7 185.1 Q 485.2 185.6, 485.0 186.6 L 488.9 186.6 Q 488.7 185.6, 488.3 185.1 Q 487.9 184.6, 487.1 184.6 " fill="#000000"/>
<path class="legend" d="M 495.1 183.5 Q 496.7 183.5, 497.5 184.5 Q 498.4 185.5, 498.4 187.4 Q 498.4 189.3, 497.4 190.4 Q 496.3 191.5, 494.5 191.5 Q 493.6 191.5, 492.9 191.2 L 492.9 195.0 L 491.5 195.0 L 491.5 183.7 L 492.6 183.7 L 492.8 184.6 Q 493.2 184.1, 493.8 183.8 Q 494.4 183.5, 495.1 183.5 M 494.5 190.4 Q 495.7 190.4, 496.3 189.6 Q 497.0 188.8, 497.0 187.4 Q 497.0 186.1, 496.5 185.3 Q 495.9 184.6, 495.0 184.6 Q 494.2 184.6, 493.7 185.0 Q 493.1 185.4, 492.9 186.2 L 492.9 190.1 Q 493.7 190.4, 494.5 190.4 " fill="#000000"/>
<path class="legend" d="M 499.7 184.7 L 499.7 183.7 L 501.2 183.7 L 501.4 181.4 L 502.4 181.4 L 502.4 183.7 L 504.8 183.7 L 504.8 184.7 L 502.4 184.7 L 502.4 189.0 Q 502.4 190.3, 503.6 190.3 Q 504.0 190.3, 504.7 190.1 L 504.9 191.1 Q 504.1 191.4, 503.3 191.4 Q 502.3 191.4, 501.7 190.8 Q 501.0 190.2, 501.0 189.1 L 501.0 184.7 L 499.7 184.7 " fill="#000000"/>
<path class="legend" d="M 505.9 180.8 L 507.2 180.8 L 507.2 182.1 L 505.9 182.1 L 505.9 180.8 M 505.9 183.7 L 507.2 183.7 L 507.2 191.3 L 505.9 191.3 L 505.9 183.7 " fill="#000000"/>
<path class="legend" d="M 516.1 180.0 L 516.1 191.3 L 515.0 191.3 L 514.8 190.4 Q 513.9 191.5, 512.5 191.5 Q 510.9 191.5, 510.0 190.5 Q 509.1 189.5, 509.1 187.6 Q 509.1 185.7, 510.2 184.6 Q 511.2 183.5, 513.1 183.5 Q 513.8 183.5, 514.7 183.7 L 514.7 180.0 L 516.1 180.0 M 512.6 190.4 Q 513.4 190.4, 513.9 189.9 Q 514.5 189.5, 514.7 188.7 L 514.7 184.9 Q 513.9 184.6, 513.1 184.6 Q 511.9 184.6, 511.2 185.4 Q 510.5 186.2, 510.5 187.6 Q 510.5 188.9, 511.1 189.7 Q 511.6 190.4, 512.6 190.4 " fill="#000000"/>
<path class="legend" d="M 517.9 187.5 Q 517.9 185.6, 518.8 184.6 Q 519.8 183.5, 521.5 183.5 Q 523.2 183.5, 523.9 184.5 Q 524.7 185.5, 524.7 187.4 L 524.7 187.7 L 519.3 187.7 Q 519.3 189.0, 519.9 189.7 Q 520.5 190.4, 521.6 190.4 Q 522.2 190.4, 522.7 190.2 Q 523.3 190.1, 524.0 189.8 L 524.4 190.7 Q 523.6 191.1, 522.9 191.3 Q 522.2 191.5, 521.5 191.5 Q 519.8 191.5, 518.8 190.4 Q 517.9 189.4, 517.9 187.5 M 521.5 184.6 Q 520.6 184.6, 520.1 185.1 Q 519.5 185.6, 519.4 186.6 L 523.2 186.6 Q 523.1 185.6, 522.7 185.1 Q 522.3 184.6, 521.5 184.6 " fill="#000000"/>
</svg>
